<?xml version="1.0" encoding="UTF-8"?>
<svg width="233.8pt" height="228.88pt" version="1.1" viewBox="0 0 233.79971 228.88213" xmlns="http://www.w3.org/2000/svg">
 <path d="m105.01-0.0625c-2.5762 0.17696-5.0922 0.882-7.4746 1.8516-1.1827 1.1219-2.589 2.2379-3.0632 3.8631-0.29442 1.1103 0.86748 1.8168 1.7878 2.0333 3.0351 0.75844 6.2028 0.64311 9.2997 0.96329 2.9542 0.31582 6.0798 0.56414 8.577 2.2838 1.6356 1.0812 2.205 3.2268 1.7446 5.0698-0.23458 1.2891-0.7993 2.4941-1.3498 3.6636 0.5006 2.9881-0.49479 6.1824-2.7611 8.206-3.4304 3.1079-8.4329 3.9697-12.874 3.1183-3.3362-0.64446-6.587-2.5457-8.1953-5.627 1.0913-3.3347 3.0772-6.4975 5.9727-8.543 1.6403-1.1679 3.9648-1.6109 5.738-0.46985 1.1832 0.72715 2.169 1.8297 2.8006 3.046 0.0403 0.9782 0.31837 2.1327-0.27882 2.9922-0.68726 0.43968-1.4349-0.31733-1.9746-0.64453-1.5422-1.102-2.8304-2.6874-4.6895-3.2617-0.93018-0.26375-1.6147 0.64778-1.7412 1.4691-0.3525 1.722-0.9099 3.6463 0.0043 5.2971 0.9597 1.7457 3.2164 2.06 5.0114 1.7691 3.0289-0.50073 6.0118-2.1338 7.659-4.7833 1.0892-1.7155 0.97962-4.0344-0.23281-5.6578-0.85168-1.1981-1.5246-2.5612-2.6887-3.5122-2.1569-2.0303-5.4251-2.4504-8.177-1.5479-4.2303 1.3435-7.7232 4.6108-9.7222 8.5307-1.5229 2.9572-1.9716 6.7364-0.17696 9.6823 0.49833 0.94384 1.3252 1.6565 1.9914 2.4514 1.2435 2.6792 3.6963 4.7512 6.5777 5.4459 4.4202 1.1399 9.0046 0.22866 13.476-0.03944 0.82493-0.08267 1.6816-0.06318 2.4912-0.13222 4.4098-4.1997 6.6848-10.211 7.349-16.173 0.54401-5.2715-0.10613-10.904-2.9964-15.451-1.9735-3.1713-5.3849-5.4171-9.1148-5.8127-0.98359-0.1287-1.9807-0.13918-2.9702-0.081334z" fill="#f7a50c"/>
 <path d="m197.26 24.537c-1.6475 0.06447-3.2488 0.52329-4.805 1.0104-5.3557 0.01614-10.591 2.0279-14.77 5.3306-6.2617 4.8958-10.617 11.66-15.285 17.981-1.8276 2.5162-3.7614 4.9507-5.8125 7.291 5.6524-2.2767 10.198-6.4651 15.011-10.082 3.9757-3.0407 8.3248-5.8403 13.256-6.9843 1.7104-2.0755 4.6029-2.6153 7.1621-2.8965 2.9558-0.36026 6.0338-0.12784 8.8756-1.1338 1.4019-0.46972 2.4516-1.8203 2.4096-3.3233 0.0483-1.4505-0.53477-2.8054-0.8001-4.2045-0.45667-1.7759-2.2303-2.8662-3.9882-2.9568-0.41655-0.04469-0.83638-0.04447-1.2547-0.03208z" fill="#1b4994"/>
 <path d="m136.92 26.711c-1.3366 0.13457-2.6198 1.1686-2.7539 2.5547-3.0714 5.6071-8.3096 9.8237-10.659 15.853-0.91709 2.271-1.1701 4.7502-0.97724 7.1799 0.22608 5.7355 0.87782 11.465 0.62463 17.212-9.0072 0.66853-18.203-0.15198-27.036 2.1012-4.748 1.1979-9.3609 3.6448-12.288 7.6665-0.37126 0.37558-0.55756 0.82607-0.40684 1.3509 0.31392 2.6432 1.5485 5.1019 1.6296 7.7743 0.01429 0.46768-0.23016 1.3061-0.8183 0.99991-2.0857-0.51482-2.9277-2.705-4.1713-4.2129-0.75276-1.0008-1.9509-1.8433-3.2182-1.7951-1.4233 1.4046-2.5595 3.4725-1.9258 5.5117 0.79716 2.5152 2.9534 4.2453 4.8144 5.9808 2.1619 2.0287 4.7324 3.9818 5.6348 6.9196 0.32934 1.043 0.14703 2.1394-0.09129 3.1704-0.1295 4.3061-1.7257 8.6503-4.8359 11.71-3.9385 3.9567-9.2817 5.9963-14.432 7.8598-6.4042 2.301-13.125 4.1062-18.828 7.943-0.69092 0.56011-1.4617 0.96052-2.3182 1.211-12.171 4.7207-22.064 14.303-28.308 25.647-6.332 11.486-9.1988 25.116-6.826 38.109 0.2415 1.2473 0.49375 2.5101 0.8539 3.7202 6.1293 5.1864 9.722 12.667 15.756 17.933 2.9545 2.6083 6.8152 4.2697 10.794 4.176 1.5025 0.0167 2.9847-0.29267 4.4537-0.5141 21.849 0.8623 43.374 5.4044 65.233 6.1249 11.084 0.36003 22.278-0.38447 33.044-3.1655 18.38-0.0228 36.956 0.0848 55.019-3.774 9.5732-2.057 18.973-5.2603 27.475-10.167 5.1762-3.1322 8.88-8.4015 10.431-14.22 2.1666-7.9395 1.0392-16.579-2.352-24.009-0.57107-1.2917-1.3896-2.4687-1.7162-3.8592-3.1517-9.3242-8.8054-17.673-15.841-24.503-9.3438-9.114-20.709-15.804-32.262-21.724-5.5489-2.8297-11.182-5.4946-16.813-8.1518-2.1022-0.057-4.287-1.0164-5.307-2.9416-1.7432-3.1832-1.5589-6.9669-2.7233-10.345-0.41847-1.2627-1.0371-2.4911-1.9697-3.4538 4.4108-2.0275 9.4684-2.537 13.561-5.2621 1.749-1.1308 3.0822-3.0848 2.9589-5.2308-6e-3 -0.59973-0.11569-1.1915-0.25647-1.7727-1.1134-0.09401-2.475 0.01715-3.3125-0.85742-0.53187-0.98708 0.28912-2.0442 0.72484-2.9125 1.1388-2.0172 2.6301-4.1918 2.2439-6.6285-0.21462-1.0363-0.73926-2.1252-1.6448-2.707-8.5917-4.7314-18.483-6.4375-28.19-6.8035-3.3264-0.12737-6.6569-0.11223-9.984-0.01684-0.21237-6.4646 2.5199-12.486 4.9589-18.332 2.2727-5.3881 4.4869-11.061 4.2423-17.016 0.60064-1.1543 1.0097-2.8694-0.14486-3.8257-0.56213-0.46513-1.3358-0.59345-2.0446-0.5083zm0.10938 45.963c6.6181 0.14168 13.368 0.51908 19.638 2.7852 1.9656 0.72739 3.8615 1.6911 5.4986 3.0097-13.743 6.0301-28.674 9.1513-43.656 9.6171-9.7201 0.28499-19.497-0.61042-28.93-2.9687 0.28056-3.1138 2.7471-5.4869 5.338-6.9451 4.584-2.5503 9.8726-3.5019 15.069-3.6228 3.8477-0.0041 7.8564 0.37303 11.285 2.2552 1.502 0.83869 2.8417 2.2005 3.1498 3.9495 0.98094 0.17532 1.5848-0.80734 1.6933-1.6489 0.45506-1.9216 0.15218-4.1559 1.4344-5.7944 0.62039-0.85496 1.7458-0.49578 2.6448-0.59866 2.278-0.04602 4.5564-0.06547 6.8348-0.03815zm24.732 13.895c0.67152 0.14431 1.8142 0.73258 1.2793 1.6055-1.0165 1.4066-2.7619 2.1062-4.3122 2.8483-4.5998 1.9453-9.5272 3.2267-14.522 3.5882-2.1204 0.07192-4.4532 0.12768-6.2975-1.0792-0.51708-0.36322-0.91697-0.90805-1.0436-1.533 8.3016-1.0892 16.636-2.5138 24.479-5.5391 0.13932 0.03646 0.27865 0.07292 0.41797 0.10938zm-73.488 5.4395c13.837 1.7411 27.837 0.95723 41.7 2.3477 1.0697 0.09834 0.38502 0.06757-0.25819 0.08039-6.8145 0.21192-13.549 1.4028-20.337 1.9516-5.2033 0.40658-10.541 0.73981-15.657-0.47871-2.5585-0.63767-5.1281-1.8551-6.6451-4.0651 0.39909 0.05469 0.79818 0.10938 1.1973 0.16406zm54.463 7.1895c2.2521-0.01886 4.3462 1.3035 5.4889 3.2117 2.1023 3.3919 2.7676 7.4072 4.1372 11.107 1.1148 3.1899 2.7584 6.5424 5.8706 8.2026 1.3557 0.77086 2.9169 1.0303 4.439 1.2118 13.981 4.1449 27.295 10.824 38.594 20.078 8.9051 7.3111 16.526 16.455 21.051 27.109 3.1742 7.4557 4.7112 15.564 4.4746 23.668-2.181 5.7856-6.2516 10.837-11.366 14.302-6.6664 4.5773-14.6 6.8402-22.482 8.2223-9.1299 1.5832-18.43 1.9103-27.66 2.6254-35.479 2.3994-71.24 3.6155-106.64-0.57857-9.4215-1.1074-18.781-2.6215-28.062-4.5862-5.5595-3.1732-10.318-7.9634-12.818-13.914-3.0204-6.9945-2.9525-14.979-1.2713-22.312 2.1904-9.463 6.7427-18.286 12.667-25.943 1.1047-1.3828 2.2108-2.7911 3.4561-4.0334 16.968-8.8835 34.141-17.416 51.831-24.778 2.4762-1.2985 3.9398-3.9062 4.5273-6.5625 0.88752-3.515 0.70193-7.3361 2.4784-10.587 0.67625-1.1669 1.6788-2.205 2.932-2.7238 12.992-0.87613 26.107 1.0424 39.02-1.1109 0.89534-0.0478 1.6797-0.42817 2.4626-0.82752 2.1566-0.97099 4.4633-1.8041 6.8647-1.78z" fill="#1b4995"/>
 <path d="m42.912 28.604c-2.081 0.04872-4.1654 0.28748-6.1914 0.75-4.1945 3.2526-9.5442 4.1437-14.599 5.2436-3.2943 0.73689-6.6665 1.5267-9.59 3.2718-1.8502 1.5658-3.0264 4.0095-2.9247 6.4494 0.036401 1.5766 1.2354 2.9862 2.7868 3.2754 0.68159 0.01499 1.3532-0.39202 2.0277-0.54961 8.9401-2.9283 17.676-6.82 27.017-8.2507 6.2992-0.99411 12.957-0.49591 18.723 2.3297 1.5565 0.69361 2.9279 1.7262 4.4931 2.3944 4.8001 2.6603 7.0409 8.2274 11.792 10.932 1.2872 0.73199 2.7559 1.1064 4.2318 1.1681-4.2254-10.042-12.053-18.596-21.861-23.398-4.9321-2.3968-10.405-3.74-15.905-3.6159z" fill="#1b4994"/>
 <path d="m209 52.705c-0.50605 0.13272-1.1035 0.32172-1.1562 0.93359-0.49704 1.369-1.7719 2.5431-3.3011 2.437-2.0343-0.0075-3.8038-1.2877-5.8086-1.4116-1.0829 0.04436-1.3423 1.3441-1.3387 2.2133-0.0245 2.0051 0.46424 3.9698 0.93272 5.9059-1.6251 0.15072-3.3976 0.1791-4.8099 1.0905-0.61062 0.35774-0.39729 1.1945 0.15954 1.4817 1.6665 1.0215 3.7024 1.1432 5.6094 1.2188 0.52895 1.4747 0.93831 3.164 2.1861 4.2126 0.86385 0.6599 1.9048-0.10179 2.4855-0.77695 0.93327-1.0219 1.6969-2.1794 2.5237-3.2872 1.7852 1.6117 3.3602 3.8489 5.8768 4.3015 1.0037 0.16634 2.0937-0.0074 2.9826-0.46163 0.70838-1.591-0.35599-3.2248-1.1503-4.5577-0.48574-0.92345-1.3834-1.8495-1.1876-2.9638 0.4932-0.87589 1.7066-0.80026 2.5785-0.88645 0.48309-0.06311 1.0613 0.08059 1.4938-0.03934 0.8737-1.1972 0.84695-2.9908-0.25908-4.0353-1.4704-1.5184-3.9523-1.8338-5.7956-0.82605-0.59776 0.30396-1.101-0.27182-1.0339-0.85575-0.13765-1.1354 0.35808-2.3844-0.18865-3.4441-0.17182-0.25901-0.51426-0.30948-0.79896-0.24894z" fill="#ef3120"/>
 <path d="m13.893 63.627c-1.424 0.08555-2.8377 0.5219-4.0625 1.2324-0.83338 1.4161-0.13597 3.1335 0.82554 4.2895 1.0149 1.4072 2.5258 2.4701 3.2395 4.0813 0.43285 1.0493-0.6854 1.8073-1.5298 2.1148-1.419 0.6678-3.2723 1.0078-4.5509-0.10085-2.3456-2.0374-2.6698-5.4895-4.8937-7.6181-0.63835-0.59726-1.5453-0.86536-2.4071-0.72564-1.6 4.844 0.079343 10.408 3.5977 13.988 2.2388 2.3134 5.6103 3.6654 8.8209 2.9439 1.1649-0.20279 2.2398-0.75709 3.2869-1.2406 2.5941 0.05877 5.4144-0.9502 6.7594-3.299 1.7151-3.0005 1.171-6.7852-0.29932-9.7683-1.608-3.3205-4.9113-6.1467-8.7866-5.8977z" fill="#ef3020"/>
 <path d="m132.49 72.475c-1.4209 0.02828-2.8499 0.03329-4.2656 0.0918-1.553 0.74352-1.7853 2.6675-1.9802 4.183-0.21334 1.1899-0.0794 2.5931-0.89413 3.5429-0.34131 0.35172-0.93243 0.38531-0.89953-0.22052-0.8493-2.5294-3.4497-3.8675-5.8319-4.6229-4.9203-1.4642-10.199-1.3372-15.213-0.43956-4.1274 0.81829-8.361 2.2008-11.486 5.1371-1.4026 1.3483-2.4214 3.1581-2.5586 5.123 15.246 3.8159 31.29 3.9016 46.731 1.222 9.0935-1.6072 18.02-4.224 26.464-7.972-3.9638-3.2393-9.1016-4.4907-14.059-5.243-5.2968-0.76347-10.665-0.85081-16.008-0.80196z" fill="#fff"/>
 <path d="m161.3 86.26c-7.9122 3.0574-16.314 4.4731-24.689 5.5703 0.25679 1.728 2.0583 2.5605 3.6072 2.8003 3.6596 0.58202 7.381-0.11091 10.953-0.91555 3.6529-0.92495 7.3363-2.0502 10.559-4.0507 0.7069-0.52405 1.7602-1.1688 1.6159-2.1848-0.26667-0.80806-1.3222-1.0591-2.0456-1.2195z" fill="#fefefe"/>
 <path d="m86.777 91.771c1.9306 2.9353 5.478 4.1842 8.7941 4.7263 5.9674 0.90528 12.03 0.29046 17.994-0.32424 5.9021-0.58348 11.787-1.593 17.733-1.5369 0.83103-0.03283 1.6869 0.21052 2.4941 0.10352-0.84978-0.35498-1.857-0.29375-2.7695-0.4707-12.348-1.358-24.805-0.84689-37.175-1.891-2.4091-0.18652-4.8116-0.45657-7.2039-0.79651 0.04427 0.06315 0.08854 0.1263 0.13281 0.18945z" fill="#fff"/>
 <path d="m142.1 99.006c-2.7248 0.14416-5.2585 1.2888-7.6903 2.4199-11.916 2.203-24.084 0.74055-36.116 1.1088-1.3853 0.0715-2.8099 0.035-4.1683 0.24983-2.2881 1.1399-3.5406 3.5853-4.0422 5.9955-0.8787 3.698-0.70714 7.757-2.7868 11.08-0.99678 1.626-2.6103 2.7755-4.4193 3.3782-17.217 7.2303-33.951 15.56-50.48 24.229-6.7565 7.4472-11.972 16.334-14.998 25.934-2.3002 7.4682-3.1945 15.632-0.99626 23.234 1.6866 5.9816 5.5095 11.262 10.494 14.94 1.1934 0.86865 2.4192 1.7414 3.7329 2.4069 32.657 6.9189 66.235 8.0619 99.506 6.9901 17.17-0.56935 34.316-1.6993 51.443-3.0268 9.3464-0.85152 18.818-2.2442 27.461-6.0679 6.3149-2.7833 12.058-7.2033 15.598-13.206 0.92126-1.5797 1.7912-3.2326 2.3566-4.9656 0.30281-10.044-2.201-20.111-7.0281-28.909-6.4983-11.947-16.685-21.538-28.053-28.827-9.0957-5.8093-19.046-10.263-29.4-13.295-2.8717-0.10881-5.6629-1.5382-7.317-3.9077-2.8348-3.9415-3.524-8.8662-5.253-13.31-0.92983-2.4761-2.3735-5.15-5.029-6.073-0.89814-0.32345-1.8633-0.41581-2.8131-0.37734zm-41.383 8.6191c1.1113 4.7764 0.15401 9.8239-2.1446 14.09-3.1752 5.9576-8.1746 10.684-13.324 14.932-3.4812 2.8461-7.1331 5.4665-10.783 8.0892 2.0242-0.061 4.0528 0.0284 6.0703 0.14062 15.076-5.3596 31.175-8.1149 47.192-7.2009 3.4676 0.18908 6.9201 0.62614 10.347 1.1543 4.7193-0.14623 9.4757-0.50056 14.17 0.197 0.0463-2.8487 1.4448-5.7175 3.9142-7.181 4.0034-2.4518 9.8215-1.7198 12.801 2.013 1.4225 1.791 1.8674 4.2087 1.5449 6.4531 5.261 1.7894 10.863 2.0846 16.321 2.9194 4.9907 0.73439 10.155 1.5728 14.579 4.1314 2.9816 1.7096 5.2864 4.6069 5.9752 7.9967 0.27724 1.0769 0.28947 2.2104 0.42037 3.3058 3.5496 7.9209 4.8081 16.621 5.8454 25.18 0.58831 4.9826 1.0646 9.9786 1.7414 14.951-3.6392 5.3935-9.0979 9.361-15.124 11.693-8.7923 3.4316-18.302 4.0898-27.633 4.7045-2.456 0.12547-4.9119 0.36981-7.3662 0.44709-20.762-1.694-41.385 2.8772-62.144 2.1942-1.5513-0.1141-3.1428-0.0154-4.6631-0.34602-8.861-2.4698-18.165-2.0684-27.269-1.8868-8.8459 0.18777-17.94 0.27509-26.401-2.6308-2.5296-0.8638-4.9825-2.0114-7.2786-3.402-0.79746 0.94387-2.2187 0.84835-3.1471 0.19675-2.2368-1.4384-3.763-3.8073-5.1325-6.0759-1.6211-2.8608-3.0616-5.9032-3.6559-9.156-3.34-4.3353-4.0601-10.142-3.1003-15.419 1.2433-6.9579 4.7495-13.426 9.5476-18.577 0.57068-0.62007 1.222-1.1888 1.791-1.793 0.34621-2.9447 2.5325-5.2527 4.7158-7.065 2.3012-1.7976 4.9104-3.3975 7.8249-3.908 0.8003-0.14121 2.0617-0.029 2.1192 1.016-0.04463 1.6488-1.1722 3.0156-2.0764 4.3106-0.39803 0.55306-0.86557 1.0528-1.2554 1.6112 5.0528-2.5073 10.471-4.114 15.895-5.6238 4.1938-1.1772 8.3916-2.3793 12.429-4.0266-1.8899-0.38204-4.0162-0.71438-5.3418-2.2578-0.93285-1.2298-0.21561-2.8311 0.61576-3.8951 2.2273-2.8253 5.2957-4.8158 8.3253-6.6786 1.423-0.82833 2.8315-1.7234 4.4206-2.1896 4.0061-1.5302 6.7516-5.0919 8.8158-8.7002 2.4648-4.1511 4.2153-8.8198 7.6205-12.341 0.78303-0.78555 1.6638-1.481 2.6454-2.0022 0.0508 0.20964 0.10156 0.41927 0.15234 0.62891z" fill="#fff"/>
 <path d="m100.58 106.76c-3.5101 1.8682-5.5728 5.4793-7.4142 8.8548-2.3174 4.2553-4.3668 8.9048-8.1398 12.089-1.4498 1.2565-3.2132 2.0726-5.0101 2.658-3.748 1.9788-7.433 4.2238-10.436 7.244-1.0799 1.1764-2.3242 2.6426-2.0609 4.3571 0.4073 1.6752 2.2268 2.3761 3.7118 2.8144 0.87568 0.18924 1.7942 0.63353 2.6672 0.20431 1.1607-0.14018 1.9416-1.0753 2.8877-1.6645 6.9975-5.0906 14.092-10.352 19.328-17.334 3.2404-4.3331 5.5625-9.6472 5.2365-15.156-0.0643-1.3963-0.30486-2.778-0.65509-4.1294l-0.0879 0.0477-0.0273 0.0148z" fill="#0d95db"/>
 <path d="m160.84 130.24c-3.3012 0.10217-6.6351 1.9616-7.9707 5.0684-0.49697 1.1721-0.83291 2.4654-0.78106 3.7356 0.21371 0.44698 0.32637 1.3764 0.60105 1.5351 2.1502-2.4345 4.4648-4.9972 7.6077-6.1085 1.9113-0.70191 4.137-0.11719 5.5145 1.366 0.68046 0.7676 0.84452 1.8685 0.95937 2.8528 0.19319 2.3613-1.5135 4.3323-3.3549 5.5704-1.7305 1.2086-3.6409 2.1191-5.492 3.1228 2.1678 1.4588 5.0565 1.4533 7.3646 0.3296 1.4633-0.66634 2.7894-1.6375 3.9088-2.7827 0.49499-1.6271 1.1133-3.2278 1.5343-4.8708 0.39914-2.8916-0.69497-6.0029-3.0714-7.7676-1.918-1.4932-4.4081-2.1603-6.8203-2.051z" fill="#f03322"/>
 <path d="m161.64 133.99c-2.9375 0.33486-5.2642 2.4303-7.2659 4.4364-0.61273 0.66616-1.3285 1.3339-1.8064 2.0597 0.79441 2.5507 1.9475 5.3565 4.4908 6.6034 0.50051 0.19252 1.0843 0.62139 1.562 0.14818 2.6747-1.4829 5.7119-2.7443 7.496-5.359 1.2004-1.758 1.0689-4.1682 0.0562-5.9652-1.1436-1.2562-2.8035-2.097-4.5328-1.9234z" fill="#fffefe"/>
 <path d="m120.1 137.31c-13.635 0.22499-27.197 2.8899-40.005 7.5304-3.4203 1.3247-6.0033 4.4718-6.6971 8.0657-1.2683 5.8806 1.7263 12.562 7.2837 15.074 7.1313 2.8243 14.903 3.657 22.529 3.492 8.8814-0.19387 17.664-1.6449 26.465-2.7147 0.56165-0.22292-0.73351-0.30856-1.069-0.33741-3.2612-0.12295-6.5377-0.26593-9.7748-0.6405-3.8628-1.0942-7.9323-1.0015-11.912-1.0814-6.1657-0.0817-12.428 0.16926-18.481-1.1641-3.2456-0.74071-6.7343-2.2158-8.3747-5.315-1.2071-2.2649-1.209-4.953-0.76697-7.4225 5.7682-3.9388 12.75-5.4767 19.579-6.2761 9.104-1.1032 18.365-0.82727 27.378-2.6615 4.2756-0.89974 8.5206-2.427 11.967-5.1815-5.9799-1.0286-12.056-1.448-18.121-1.3672z" fill="#1c4a95"/>
 <path d="m143.28 138.45c-1.7896 0.068-3.5967 0.10175-5.375 0.20703-4.7677 3.7223-10.841 5.0804-16.716 5.8325-10.493 1.3188-21.242 0.80386-31.538 3.5093-3.7213 1.0134-7.4225 2.4713-10.555 4.7227-0.57229 3.0386-0.37899 6.5009 1.7001 8.9591 2.3539 2.7914 6.0712 3.8327 9.5334 4.4355 8.0602 1.2893 16.258 0.35686 24.357 1.1007 1.4742 0.14243 2.9328 0.3806 4.3467 0.83478 0.5544-0.73129 1.1038-1.4664 1.6562-2.1992 6.7606-0.42406 13.756-0.91897 19.945-3.9142 2.051-0.98474 3.9276-2.3108 5.6163-3.826 1.3721-0.63418 2.5144-2.0991 2.1772-3.6762-0.47184-2.2981-2.4554-3.9859-4.5127-4.9066-1.5189-0.69023-3.3807-0.845-4.8606 0.0112-9.1586 1.9628-18.467 3.4082-27.371 6.386 2.0179 1.4266 4.6506 1.1119 6.9606 0.82197 3.669-0.51538 7.2482-1.6188 10.94-1.904 0.0483 2.4904-1.0389 5.1166-3.2816 6.3766-3.1575 1.8131-7.0406 1.5412-10.507 0.86701-3.7087-0.82236-7.3711-2.2416-10.356-4.6382 0.68684-2.8566 2.7207-5.2654 5.3711-6.4883 4.494-2.1057 9.546-2.1372 14.357-2.9724 2.1954-0.33161 4.3423-0.93813 6.3763-1.8231 4.769-1.6473 10.152-1.6807 14.893 4e-3 3.0637 1.0953 5.9989 3.4018 6.7318 6.6995 0.61357 2.5741-0.0587 5.2654-1.1126 7.6188-6.6374 4.5729-14.405 7.7203-22.511 8.0808-11.465 1.385-22.995 3.47-34.582 2.4458-4.8448-0.4385-9.6723-1.4171-14.209-3.2199-6.2562-2.8335-9.1667-10.989-6.4102-17.199 1.1775-2.7339 3.5914-4.8049 6.3695-5.804 0.04443-0.19456-1.0937-0.10927-1.5091-0.18055-1.5453-0.0479-3.1144-0.18335-4.6489-0.0192-2.1449 0.52004-4.1118 1.5082-6.2295 2.1228-7.6805 2.5098-15.745 4.0418-22.996 7.7168-7.1339 8.0658-11.089 18.654-11.792 29.349-0.62579 8.81 0.78562 17.728 3.8958 25.983 6.3773 3.9209 13.883 5.5469 21.291 5.9411 11.487 0.69327 23.083-0.98164 34.498 0.84603 1.9915 0.29461 3.9448 0.82814 5.8871 1.2873 20.769 1.4051 41.385-3.1803 62.152-2.2477 1.6357 0.0179 3.2679 0.30798 4.9007 0.23321 10.279-0.7624 20.757-0.90977 30.695-3.9356 6.5369-1.9498 12.746-5.4914 17.082-10.835 0.56963-0.72753 1.1807-1.4571 1.6465-2.2402-1.5476-11.196-1.9962-22.621-5.1536-33.531-0.6969-2.3862-1.554-4.7221-2.5827-6.9844-1.7787 4.0752-5.1768 7.2478-9.1928 9.081-5.8976 2.7239-12.488 3.3244-18.908 3.7415-2.9171 0.18414-5.8384 0.30045-8.7533 0.52124-0.31951-2.1922 0.0794-4.7073 1.9623-6.1138 2.3399-1.7376 5.3615-1.9163 8.1622-2.1469 4.3806-0.30781 8.8808-3e-3 13.134-1.2632 2.2813-0.65739 4.4362-2.2836 5.0647-4.6635 0.14103-0.50984 0.3059-1.08 0.27605-1.588-5.3394-5.5291-12.738-8.5812-20.182-10.008-3.4175-0.63879-6.9278-1.033-10.387-1.0332-2.2653 2.2522-5.5035 4.0724-8.7807 3.3315-1.0862-0.21397-1.9856-0.88936-3.0324-1.2082-2.4074-1.1388-3.591-3.7646-4.3539-6.1954-0.24999-0.62451-0.37735-1.4003-0.70024-1.9357-2.9389-0.43233-5.9176-0.4435-8.8809-0.36718zm22.822 18.098c1.9671-0.0408 3.4989 1.6948 3.9356 3.5117 0.38407 1.5398 0.43756 3.5263-0.875 4.6484-0.81863 0.61799-1.8686 0.21809-2.6875-0.13977-1.4192-0.0435-3.1493-0.69148-3.4149-2.2678-0.30829-1.9672 0.66545-3.8513 1.575-5.5397 0.47604-0.13944 0.9702-0.2167 1.4668-0.21289zm-116.23 1.7031c3.4734-0.0282 6.5458 2.5474 7.8922 5.6059 1.0418 2.2393 0.84114 5.1526-0.93837 6.9898-0.65846 0.66635-1.3779 1.2628-2.0633 1.8996-2.5392 1.9498-6.1195 1.4829-8.8054 0.0808-2.0611-1.087-4.1291-2.8492-4.546-5.2773-0.25264-1.5225 0.63479-2.9731 1.7949-3.8789 0.70042-1.9094 2.1336-3.5359 3.8184-4.6113 0.86504-0.49814 1.8484-0.78472 2.8477-0.80859zm104.37 11.344c1.6293-0.0867 3.4309 0.74054 3.8306 2.4345 0.60277 2.3465-0.91033 5.3433-3.4477 5.6222-1.5937 0.0879-3.3431-0.84897-3.9062-2.4238-0.41454-1.5899 1.0837-2.7709 1.611-4.1496 0.18097-0.41714 0.30907-0.86104 0.33039-1.3172 0.5143-0.0963 1.0469-0.15845 1.582-0.16601zm-94.678 2.6699c4.1717 0.23504 7.6777 2.8302 10.799 5.3734 3.6466 2.9369 7.2718 6.3136 11.938 7.4718 2.2771 0.56687 4.6931 0.48157 6.9523-0.12839 2.9521 1.4584 6.361 1.3755 9.5757 1.3513 3.9792-0.0257 8.0569-0.53145 11.956 0.45195 2.0146 0.50027 3.8697 1.9178 4.3611 4.0121 0.15779 0.4943 0.34569 1.1036-0.41794 0.90169-10.874 0.47292-21.899 1.0169-32.648-1.0288-5.9747-1.1813-12.008-3.2401-16.613-7.387-3.2247-2.883-5.3991-6.8102-6.2846-11.032 0.12695 5e-3 0.25391 9e-3 0.38086 0.0137z" fill="#cce210"/>
 <path d="m170.51 140.21c-0.51687 1.5925-1.0342 3.1848-1.5508 4.7773 8.3866 0.18992 16.926 1.7962 24.222 6.092 2.279 1.3503 4.3916 2.9865 6.2391 4.8866-0.17751 2.2721-1.5933 4.3851-3.6789 5.3314-3.3142 1.5593-7.0628 1.5331-10.65 1.7089-3.529 0.18148-7.1959 0.0689-10.539 1.3737-1.9461 0.71995-3.5148 2.4697-3.7491 4.5681-0.15936 0.95842-0.10316 1.9384 0.0133 2.8988 8.2749-0.63358 16.764-0.45077 24.744-3.0273 4.5028-1.4525 8.7924-4.1321 11.293-8.2448 0.39548-0.69029 0.88208-1.3887 1.0874-2.148-0.0299-3.5726-1.3954-7.2123-4.1517-9.5688-3.541-3.0907-8.2525-4.2822-12.762-5.1572-6.1384-1.176-12.439-1.4122-18.499-2.9729-0.67123-0.17462-1.3335-0.38023-1.9867-0.61323l-0.031 0.0951-2.1e-4 6.4e-4z" fill="#1c4a95"/>
 <path d="m137.8 144.75c-2.8082 0.12563-5.5723 0.80737-8.1387 1.9395-5.9067 2.0097-12.418 1.3771-18.228 3.766-2.694 1.0777-4.9828 3.2413-5.9012 6.0289-0.0792 0.45526-0.60118 1.0868 0.0514 1.3251 3.356 2.5666 7.4594 4.0428 11.603 4.7247 3.2394 0.46231 6.8559 0.4722 9.6658-1.4307 2.1036-1.4134 3.0083-4.0278 2.9434-6.4785-4.9161 0.31311-9.621 2.2049-14.569 2.1509-1.0606-0.0432-2.1611-0.21664-3.0717-0.79543 8.8179-2.9056 18.028-4.3272 27.086-6.2832 1.9128-1.1195 4.2791-0.37615 5.9982 0.77113 1.6074 1.0948 3.2176 2.8435 3.0167 4.9296-0.1666 1.2702-1.2452 2.0972-2.2844 2.6671-4.4167 4.1396-10.434 5.9633-16.295 6.7673-3.1122 0.46608-6.2586 0.61735-9.3922 0.86101 2.7599 1.273 5.7747 1.853 8.6008 2.9428 1.5177 0.26043 3.0625-0.1004 4.5769-0.25721 6.7657-1.0393 13.187-3.8927 18.773-7.7891 1.347-2.9336 2.0228-6.5103 0.50685-9.5146-1.613-3.2256-5.0971-4.9916-8.4757-5.7681-2.1135-0.49905-4.2998-0.6542-6.4667-0.5571z" fill="#1e4c92"/>
 <path d="m46.545 147.55c-2.8354 0.39777-5.3799 1.9206-7.6527 3.5874-2.3373 1.8312-4.6498 4.1489-5.2301 7.1724-0.174 0.95018-0.86892 1.732-1.2285 2.6289-4.7394 9.5049-6.4179 20.192-6.9246 30.709-0.03232 1.495-0.30715 3.0269 0.20194 4.4743 1.1552 3.943 3.0625 7.6719 5.5352 10.949 1.1548 1.4012 2.4617 2.973 4.3195 3.3783 0.7429 0.14183 1.6802-0.17003 2.0476-0.78831-4.073-10.812-5.2132-22.818-2.6641-34.129 1.752-7.8369 5.4428-15.276 10.793-21.284 1.1871-1.5376 2.5582-3.1172 2.9219-5.0815 0.18429-0.84812-0.53435-1.6212-1.375-1.6146-0.24697-0.029-0.4967-0.0191-0.74417-3e-3z" fill="#0a94db"/>
 <path d="m165.82 156.35c-0.57456 0.0913-1.4045-7e-5 -1.5783 0.7108-0.86514 1.6914-1.8106 3.6484-1.2903 5.5871 0.4503 1.5191 2.1661 2.0646 3.5912 2.122 0.98974 0.6185 2.5176 0.6912 3.2214-0.39051 1.0975-1.6577 0.83138-3.9034-0.0132-5.6134-0.71144-1.486-2.2486-2.5522-3.9308-2.416z" fill="#1d4b93"/>
 <path d="m33.641 158.66c-5.3812 4.9948-9.3099 11.586-11.033 18.735-1.2156 5.1657-1.0591 10.921 1.6892 15.587 0.38095 0.66407 0.82464 1.2885 1.2828 1.9014 0.31773-10.817 1.624-21.832 6.0594-31.798 0.65909-1.5712 1.5324-3.0463 2.2473-4.5831-0.08203 0.0527-0.16406 0.10546-0.24609 0.1582z" fill="#cce210"/>
 <path d="m49.5 158.07c-1.6927 0.13093-3.2411 1.0419-4.3691 2.2832 2.9962 1.97 6.172 3.806 8.6172 6.457-0.63611 1.3911-1.9865 2.7874-3.6533 2.4777-2.2659-0.45507-3.9093-2.2806-5.4071-3.9089-0.54215-0.60894-1.0471-1.2494-1.5548-1.8871-1.4046 1.0191-2.3311 2.8415-1.8141 4.5752 0.73737 2.57 3.0811 4.3307 5.4391 5.3525 2.6308 1.1167 5.9937 1.2805 8.2968-0.64686 1.084-1.039 2.3853-1.9484 2.992-3.382 1.2869-2.7401 0.21149-6.014-1.7138-8.1666-1.6842-1.9441-4.1966-3.3679-6.8328-3.1542z" fill="#214e94"/>
 <path d="m45.217 160.27c-0.94459 0.96904-1.786 2.0837-2.2109 3.3848 1.7137 2.1174 3.4967 4.3879 6.0312 5.5469 1.3351 0.63997 3.0367 0.30772 3.954-0.87898 0.41012-0.45946 0.71968-0.99533 1.001-1.541-2.4682-2.7161-5.6785-4.5739-8.7188-6.5723l-0.05664 0.0605z" fill="#fcfcfd"/>
 <path d="m120.56 165.69c-0.58314 0.77554-1.1678 1.5499-1.75 2.3262 3.3879 0.26474 6.7862 0.5604 10.182 0.57615-0.0582-0.22075-0.94127-0.43461-1.3604-0.61248-2.3344-0.80508-4.7601-1.3497-7.0252-2.3504l-0.0469 0.0606z" fill="#204e91"/>
 <path d="m153.85 169.41c-0.44559 0.0637-1.0599 0.0291-1.3809 0.25977-0.0229 1.8874-1.8769 3.1048-2.0332 4.9414 0.047 1.7354 1.757 2.9234 3.3316 3.2034 2.0355 0.38553 3.864-1.2966 4.3918-3.16 0.60467-1.6769 0.16983-3.9031-1.537-4.7491-0.84548-0.4476-1.8292-0.55011-2.7723-0.49543z" fill="#1d4b93"/>
 <path d="m58.963 172.17c0.97079 4.835 3.685 9.2955 7.6067 12.3 5.2734 4.0968 11.912 5.911 18.415 6.8989 10.129 1.476 20.397 0.93625 30.581 0.4929-0.18014-2.0234-1.4172-3.9364-3.3086-4.748-3.0441-1.3408-6.4748-1.1204-9.725-1.0867-3.8942 0.0685-7.9331 0.47073-11.703-0.61839-0.54865-0.15059-1.0697-0.42511-1.584-0.63086-3.4806 0.99634-7.2775 0.50543-10.426-1.2216-5.4689-2.8285-9.3777-7.9866-15.046-10.476-1.5245-0.65745-3.177-1.0288-4.8408-1.0363l0.02249 0.0974 0.0068 0.0295z" fill="#1c4a94"/>
</svg>
