<?xml version="1.0" encoding="UTF-8"?>
<svg width="288.51mm" height="192.15mm" version="1.1" viewBox="0 0 1022.2744 680.84281" xmlns="http://www.w3.org/2000/svg">
 <g transform="translate(296.98 64.867)">
  <rect x="-296.98" y="-64.867" width="1022.3" height="680.84" fill="#81d4fa"/>
  <path d="m-77.17 439.68h68.364v107.28c-21.427-1.2101-43.706 2.1734-68.364 0z" fill="#4d4d4d" fill-rule="evenodd"/>
  <path d="m-77.17 439.68h68.364v56.524c-21.427-0.63758-43.706 1.1451-68.364 0z" fill="#333" fill-rule="evenodd"/>
  <rect transform="rotate(-90)" x="-466.19" y="-216.38" width="453.18" height="346.4" fill="#c5e1a5" fill-rule="evenodd"/>
  <rect transform="rotate(-90)" x="-466.19" y="-180.01" width="453.18" height="273.66" fill="#fff" fill-rule="evenodd"/>
  <g transform="translate(-1.4374 .30535)" fill="#7986cb">
   <circle cx="86.049" cy="26.379" r="4.7193"/>
   <circle cx="72.52" cy="26.379" r="4.7193"/>
   <circle cx="59.306" cy="26.379" r="4.7193"/>
  </g>
  <path d="m-229.27 482.97h372.57v-476.54h-372.57zm19.254-23.376v-433.29h332.52v434.01z" fill="#4d4d4d" fill-rule="evenodd"/>
  <path d="m-147.71 553.66h209.45c1.1363 0 2.4752-0.36736 2.0511-0.75571l-10.251-9.3805c-0.42435-0.38838-4.7587-0.75574-5.8948-0.75574h-181.26c-1.1363 0-5.4704 0.36736-5.895 0.75574l-10.251 9.3805c-0.42453 0.38835 0.9146 0.75571 2.0507 0.75571z" fill="#424242" fill-rule="evenodd"/>
  <rect x="-163.58" y="41.953" width="140.42" height="11.065" fill="#ff8f00"/>
  <rect x="-156.03" y="85.371" width="30.618" height="6.3462" fill="#26c6da"/>
  <path transform="matrix(.63338 .34028 -.25699 .83865 -35.806 65.054)" d="m-151.75 93.336c-0.22883 0.2776-3.2402-0.03191-3.5967-0.08022-0.34164-0.04629-3.2181-0.53654-3.3388-0.85948-0.126-0.33698 1.6478-2.7902 1.8678-3.0748 0.21091-0.27273 2.0737-2.5187 2.4137-2.4618 0.35483 0.05938 1.5925 2.8221 1.7289 3.155 0.13074 0.31902 1.1444 3.0552 0.92508 3.3212z" fill="#26c6da"/>
  <path transform="matrix(-.63338 .34028 .25699 .83865 -245.57 65.054)" d="m-151.75 93.336c-0.22883 0.2776-3.2402-0.03191-3.5967-0.08022-0.34164-0.04629-3.2181-0.53654-3.3388-0.85948-0.126-0.33698 1.6478-2.7902 1.8678-3.0748 0.21091-0.27273 2.0737-2.5187 2.4137-2.4618 0.35483 0.05938 1.5925 2.8221 1.7289 3.155 0.13074 0.31902 1.1444 3.0552 0.92508 3.3212z" fill="#26c6da"/>
  <rect x="-139.04" y="97.641" width="30.618" height="6.3462" fill="#26c6da"/>
  <path transform="matrix(.63338 .34028 -.25699 .83865 -18.816 77.324)" d="m-151.75 93.336c-0.22883 0.2776-3.2402-0.03191-3.5967-0.08022-0.34164-0.04629-3.2181-0.53654-3.3388-0.85948-0.126-0.33698 1.6478-2.7902 1.8678-3.0748 0.21091-0.27273 2.0737-2.5187 2.4137-2.4618 0.35483 0.05938 1.5925 2.8221 1.7289 3.155 0.13074 0.31902 1.1444 3.0552 0.92508 3.3212z" fill="#26c6da"/>
  <path transform="matrix(-.63338 .34028 .25699 .83865 -228.58 77.324)" d="m-151.75 93.336c-0.22883 0.2776-3.2402-0.03191-3.5967-0.08022-0.34164-0.04629-3.2181-0.53654-3.3388-0.85948-0.126-0.33698 1.6478-2.7902 1.8678-3.0748 0.21091-0.27273 2.0737-2.5187 2.4137-2.4618 0.35483 0.05938 1.5925 2.8221 1.7289 3.155 0.13074 0.31902 1.1444 3.0552 0.92508 3.3212z" fill="#26c6da"/>
  <rect x="-125.83" y="109.28" width="30.618" height="6.3462" fill="#26c6da"/>
  <path transform="matrix(.63338 .34028 -.25699 .83865 -5.6022 88.965)" d="m-151.75 93.336c-0.22883 0.2776-3.2402-0.03191-3.5967-0.08022-0.34164-0.04629-3.2181-0.53654-3.3388-0.85948-0.126-0.33698 1.6478-2.7902 1.8678-3.0748 0.21091-0.27273 2.0737-2.5187 2.4137-2.4618 0.35483 0.05938 1.5925 2.8221 1.7289 3.155 0.13074 0.31902 1.1444 3.0552 0.92508 3.3212z" fill="#26c6da"/>
  <path transform="matrix(-.63338 .34028 .25699 .83865 -215.37 88.965)" d="m-151.75 93.336c-0.22883 0.2776-3.2402-0.03191-3.5967-0.08022-0.34164-0.04629-3.2181-0.53654-3.3388-0.85948-0.126-0.33698 1.6478-2.7902 1.8678-3.0748 0.21091-0.27273 2.0737-2.5187 2.4137-2.4618 0.35483 0.05938 1.5925 2.8221 1.7289 3.155 0.13074 0.31902 1.1444 3.0552 0.92508 3.3212z" fill="#26c6da"/>
  <rect x="-125.51" y="121.24" width="30.618" height="6.3462" fill="#26c6da"/>
  <path transform="matrix(.63338 .34028 -.25699 .83865 -5.2876 100.92)" d="m-151.75 93.336c-0.22883 0.2776-3.2402-0.03191-3.5967-0.08022-0.34164-0.04629-3.2181-0.53654-3.3388-0.85948-0.126-0.33698 1.6478-2.7902 1.8678-3.0748 0.21091-0.27273 2.0737-2.5187 2.4137-2.4618 0.35483 0.05938 1.5925 2.8221 1.7289 3.155 0.13074 0.31902 1.1444 3.0552 0.92508 3.3212z" fill="#26c6da"/>
  <path transform="matrix(-.63338 .34028 .25699 .83865 -215.06 100.92)" d="m-151.75 93.336c-0.22883 0.2776-3.2402-0.03191-3.5967-0.08022-0.34164-0.04629-3.2181-0.53654-3.3388-0.85948-0.126-0.33698 1.6478-2.7902 1.8678-3.0748 0.21091-0.27273 2.0737-2.5187 2.4137-2.4618 0.35483 0.05938 1.5925 2.8221 1.7289 3.155 0.13074 0.31902 1.1444 3.0552 0.92508 3.3212z" fill="#26c6da"/>
  <rect x="-125.2" y="132.88" width="30.618" height="6.3462" fill="#26c6da"/>
  <path transform="matrix(.63338 .34028 -.25699 .83865 -4.973 112.56)" d="m-151.75 93.336c-0.22883 0.2776-3.2402-0.03191-3.5967-0.08022-0.34164-0.04629-3.2181-0.53654-3.3388-0.85948-0.126-0.33698 1.6478-2.7902 1.8678-3.0748 0.21091-0.27273 2.0737-2.5187 2.4137-2.4618 0.35483 0.05938 1.5925 2.8221 1.7289 3.155 0.13074 0.31902 1.1444 3.0552 0.92508 3.3212z" fill="#26c6da"/>
  <path transform="matrix(-.63338 .34028 .25699 .83865 -214.74 112.56)" d="m-151.75 93.336c-0.22883 0.2776-3.2402-0.03191-3.5967-0.08022-0.34164-0.04629-3.2181-0.53654-3.3388-0.85948-0.126-0.33698 1.6478-2.7902 1.8678-3.0748 0.21091-0.27273 2.0737-2.5187 2.4137-2.4618 0.35483 0.05938 1.5925 2.8221 1.7289 3.155 0.13074 0.31902 1.1444 3.0552 0.92508 3.3212z" fill="#26c6da"/>
  <rect x="-125.2" y="144.83" width="30.618" height="6.3462" fill="#26c6da"/>
  <path transform="matrix(.63338 .34028 -.25699 .83865 -4.973 124.52)" d="m-151.75 93.336c-0.22883 0.2776-3.2402-0.03191-3.5967-0.08022-0.34164-0.04629-3.2181-0.53654-3.3388-0.85948-0.126-0.33698 1.6478-2.7902 1.8678-3.0748 0.21091-0.27273 2.0737-2.5187 2.4137-2.4618 0.35483 0.05938 1.5925 2.8221 1.7289 3.155 0.13074 0.31902 1.1444 3.0552 0.92508 3.3212z" fill="#26c6da"/>
  <path transform="matrix(-.63338 .34028 .25699 .83865 -214.74 124.52)" d="m-151.75 93.336c-0.22883 0.2776-3.2402-0.03191-3.5967-0.08022-0.34164-0.04629-3.2181-0.53654-3.3388-0.85948-0.126-0.33698 1.6478-2.7902 1.8678-3.0748 0.21091-0.27273 2.0737-2.5187 2.4137-2.4618 0.35483 0.05938 1.5925 2.8221 1.7289 3.155 0.13074 0.31902 1.1444 3.0552 0.92508 3.3212z" fill="#26c6da"/>
  <rect x="-125.2" y="186.99" width="30.618" height="6.3462" fill="#26c6da"/>
  <path transform="matrix(.63338 .34028 -.25699 .83865 -4.973 166.68)" d="m-151.75 93.336c-0.22883 0.2776-3.2402-0.03191-3.5967-0.08022-0.34164-0.04629-3.2181-0.53654-3.3388-0.85948-0.126-0.33698 1.6478-2.7902 1.8678-3.0748 0.21091-0.27273 2.0737-2.5187 2.4137-2.4618 0.35483 0.05938 1.5925 2.8221 1.7289 3.155 0.13074 0.31902 1.1444 3.0552 0.92508 3.3212z" fill="#26c6da"/>
  <path transform="matrix(-.63338 .34028 .25699 .83865 -214.74 166.68)" d="m-151.75 93.336c-0.22883 0.2776-3.2402-0.03191-3.5967-0.08022-0.34164-0.04629-3.2181-0.53654-3.3388-0.85948-0.126-0.33698 1.6478-2.7902 1.8678-3.0748 0.21091-0.27273 2.0737-2.5187 2.4137-2.4618 0.35483 0.05938 1.5925 2.8221 1.7289 3.155 0.13074 0.31902 1.1444 3.0552 0.92508 3.3212z" fill="#26c6da"/>
  <rect x="-123.94" y="198.95" width="30.618" height="6.3462" fill="#26c6da"/>
  <path transform="matrix(.63338 .34028 -.25699 .83865 -3.7145 178.63)" d="m-151.75 93.336c-0.22883 0.2776-3.2402-0.03191-3.5967-0.08022-0.34164-0.04629-3.2181-0.53654-3.3388-0.85948-0.126-0.33698 1.6478-2.7902 1.8678-3.0748 0.21091-0.27273 2.0737-2.5187 2.4137-2.4618 0.35483 0.05938 1.5925 2.8221 1.7289 3.155 0.13074 0.31902 1.1444 3.0552 0.92508 3.3212z" fill="#26c6da"/>
  <path transform="matrix(-.63338 .34028 .25699 .83865 -213.48 178.63)" d="m-151.75 93.336c-0.22883 0.2776-3.2402-0.03191-3.5967-0.08022-0.34164-0.04629-3.2181-0.53654-3.3388-0.85948-0.126-0.33698 1.6478-2.7902 1.8678-3.0748 0.21091-0.27273 2.0737-2.5187 2.4137-2.4618 0.35483 0.05938 1.5925 2.8221 1.7289 3.155 0.13074 0.31902 1.1444 3.0552 0.92508 3.3212z" fill="#26c6da"/>
  <rect x="-139.04" y="212.16" width="30.618" height="6.3462" fill="#26c6da"/>
  <path transform="matrix(.63338 .34028 -.25699 .83865 -18.816 191.85)" d="m-151.75 93.336c-0.22883 0.2776-3.2402-0.03191-3.5967-0.08022-0.34164-0.04629-3.2181-0.53654-3.3388-0.85948-0.126-0.33698 1.6478-2.7902 1.8678-3.0748 0.21091-0.27273 2.0737-2.5187 2.4137-2.4618 0.35483 0.05938 1.5925 2.8221 1.7289 3.155 0.13074 0.31902 1.1444 3.0552 0.92508 3.3212z" fill="#26c6da"/>
  <path transform="matrix(-.63338 .34028 .25699 .83865 -228.58 191.85)" d="m-151.75 93.336c-0.22883 0.2776-3.2402-0.03191-3.5967-0.08022-0.34164-0.04629-3.2181-0.53654-3.3388-0.85948-0.126-0.33698 1.6478-2.7902 1.8678-3.0748 0.21091-0.27273 2.0737-2.5187 2.4137-2.4618 0.35483 0.05938 1.5925 2.8221 1.7289 3.155 0.13074 0.31902 1.1444 3.0552 0.92508 3.3212z" fill="#26c6da"/>
  <rect x="-139.04" y="227.9" width="30.618" height="6.3462" fill="#26c6da"/>
  <path transform="matrix(.63338 .34028 -.25699 .83865 -18.816 207.58)" d="m-151.75 93.336c-0.22883 0.2776-3.2402-0.03191-3.5967-0.08022-0.34164-0.04629-3.2181-0.53654-3.3388-0.85948-0.126-0.33698 1.6478-2.7902 1.8678-3.0748 0.21091-0.27273 2.0737-2.5187 2.4137-2.4618 0.35483 0.05938 1.5925 2.8221 1.7289 3.155 0.13074 0.31902 1.1444 3.0552 0.92508 3.3212z" fill="#26c6da"/>
  <path transform="matrix(-.63338 .34028 .25699 .83865 -228.58 207.58)" d="m-151.75 93.336c-0.22883 0.2776-3.2402-0.03191-3.5967-0.08022-0.34164-0.04629-3.2181-0.53654-3.3388-0.85948-0.126-0.33698 1.6478-2.7902 1.8678-3.0748 0.21091-0.27273 2.0737-2.5187 2.4137-2.4618 0.35483 0.05938 1.5925 2.8221 1.7289 3.155 0.13074 0.31902 1.1444 3.0552 0.92508 3.3212z" fill="#26c6da"/>
  <rect x="-82.482" y="144.83" width="146.66" height="6.3462" fill="#ccc"/>
  <path transform="matrix(.63338 .34028 -.25699 .83865 37.742 124.52)" d="m-151.75 93.336c-0.22883 0.2776-3.2402-0.03191-3.5967-0.08022-0.34164-0.04629-3.2181-0.53654-3.3388-0.85948-0.126-0.33698 1.6478-2.7902 1.8678-3.0748 0.21091-0.27273 2.0737-2.5187 2.4137-2.4618 0.35483 0.05938 1.5925 2.8221 1.7289 3.155 0.13074 0.31902 1.1444 3.0552 0.92508 3.3212z" fill="#ccc"/>
  <path transform="matrix(-.63338 .34028 .25699 .83865 -56.246 124.52)" d="m-151.75 93.336c-0.22883 0.2776-3.2402-0.03191-3.5967-0.08022-0.34164-0.04629-3.2181-0.53654-3.3388-0.85948-0.126-0.33698 1.6478-2.7902 1.8678-3.0748 0.21091-0.27273 2.0737-2.5187 2.4137-2.4618 0.35483 0.05938 1.5925 2.8221 1.7289 3.155 0.13074 0.31902 1.1444 3.0552 0.92508 3.3212z" fill="#ccc"/>
  <rect x="-124.45" y="156.16" width="188.36" height="6.3462" fill="#ccc"/>
  <path transform="matrix(.81264 .34028 -.32973 .83865 29.805 135.84)" d="m-151.75 93.336c-0.22883 0.2776-3.2402-0.03191-3.5967-0.08022-0.34164-0.04629-3.2181-0.53654-3.3388-0.85948-0.126-0.33698 1.6478-2.7902 1.8678-3.0748 0.21091-0.27273 2.0737-2.5187 2.4137-2.4618 0.35483 0.05938 1.5925 2.8221 1.7289 3.155 0.13074 0.31902 1.1444 3.0552 0.92508 3.3212z" fill="#ccc"/>
  <path transform="matrix(-.81264 .34028 .32973 .83865 -90.784 135.84)" d="m-151.75 93.336c-0.22883 0.2776-3.2402-0.03191-3.5967-0.08022-0.34164-0.04629-3.2181-0.53654-3.3388-0.85948-0.126-0.33698 1.6478-2.7902 1.8678-3.0748 0.21091-0.27273 2.0737-2.5187 2.4137-2.4618 0.35483 0.05938 1.5925 2.8221 1.7289 3.155 0.13074 0.31902 1.1444 3.0552 0.92508 3.3212z" fill="#ccc"/>
  <rect x="-124.45" y="166.86" width="188.36" height="6.3462" fill="#ccc"/>
  <path transform="matrix(.81264 .34028 -.32973 .83865 29.805 146.54)" d="m-151.75 93.336c-0.22883 0.2776-3.2402-0.03191-3.5967-0.08022-0.34164-0.04629-3.2181-0.53654-3.3388-0.85948-0.126-0.33698 1.6478-2.7902 1.8678-3.0748 0.21091-0.27273 2.0737-2.5187 2.4137-2.4618 0.35483 0.05938 1.5925 2.8221 1.7289 3.155 0.13074 0.31902 1.1444 3.0552 0.92508 3.3212z" fill="#ccc"/>
  <path transform="matrix(-.81264 .34028 .32973 .83865 -90.784 146.54)" d="m-151.75 93.336c-0.22883 0.2776-3.2402-0.03191-3.5967-0.08022-0.34164-0.04629-3.2181-0.53654-3.3388-0.85948-0.126-0.33698 1.6478-2.7902 1.8678-3.0748 0.21091-0.27273 2.0737-2.5187 2.4137-2.4618 0.35483 0.05938 1.5925 2.8221 1.7289 3.155 0.13074 0.31902 1.1444 3.0552 0.92508 3.3212z" fill="#ccc"/>
  <rect x="-125.04" y="176.61" width="166.84" height="6.3462" fill="#ccc"/>
  <path transform="matrix(.71978 .34028 -.29205 .83865 11.589 156.29)" d="m-151.75 93.336c-0.22883 0.2776-3.2402-0.03191-3.5967-0.08022-0.34164-0.04629-3.2181-0.53654-3.3388-0.85948-0.126-0.33698 1.6478-2.7902 1.8678-3.0748 0.21091-0.27273 2.0737-2.5187 2.4137-2.4618 0.35483 0.05938 1.5925 2.8221 1.7289 3.155 0.13074 0.31902 1.1444 3.0552 0.92508 3.3212z" fill="#ccc"/>
  <path transform="matrix(-.71978 .34028 .29205 .83865 -95.221 156.29)" d="m-151.75 93.336c-0.22883 0.2776-3.2402-0.03191-3.5967-0.08022-0.34164-0.04629-3.2181-0.53654-3.3388-0.85948-0.126-0.33698 1.6478-2.7902 1.8678-3.0748 0.21091-0.27273 2.0737-2.5187 2.4137-2.4618 0.35483 0.05938 1.5925 2.8221 1.7289 3.155 0.13074 0.31902 1.1444 3.0552 0.92508 3.3212z" fill="#ccc"/>
  <rect x="-81.778" y="120.92" width="30.618" height="6.3462" fill="#ff7043"/>
  <path transform="matrix(.63338 .34028 -.25699 .83865 38.445 100.61)" d="m-151.75 93.336c-0.22883 0.2776-3.2402-0.03191-3.5967-0.08022-0.34164-0.04629-3.2181-0.53654-3.3388-0.85948-0.126-0.33698 1.6478-2.7902 1.8678-3.0748 0.21091-0.27273 2.0737-2.5187 2.4137-2.4618 0.35483 0.05938 1.5925 2.8221 1.7289 3.155 0.13074 0.31902 1.1444 3.0552 0.92508 3.3212z" fill="#ff7043"/>
  <path transform="matrix(-.63338 .34028 .25699 .83865 -171.32 100.61)" d="m-151.75 93.336c-0.22883 0.2776-3.2402-0.03191-3.5967-0.08022-0.34164-0.04629-3.2181-0.53654-3.3388-0.85948-0.126-0.33698 1.6478-2.7902 1.8678-3.0748 0.21091-0.27273 2.0737-2.5187 2.4137-2.4618 0.35483 0.05938 1.5925 2.8221 1.7289 3.155 0.13074 0.31902 1.1444 3.0552 0.92508 3.3212z" fill="#ff7043"/>
  <rect x="-5.3252" y="120.92" width="30.618" height="6.3462" fill="#ff7043"/>
  <path transform="matrix(.63338 .34028 -.25699 .83865 114.9 100.61)" d="m-151.75 93.336c-0.22883 0.2776-3.2402-0.03191-3.5967-0.08022-0.34164-0.04629-3.2181-0.53654-3.3388-0.85948-0.126-0.33698 1.6478-2.7902 1.8678-3.0748 0.21091-0.27273 2.0737-2.5187 2.4137-2.4618 0.35483 0.05938 1.5925 2.8221 1.7289 3.155 0.13074 0.31902 1.1444 3.0552 0.92508 3.3212z" fill="#ff7043"/>
  <path transform="matrix(-.63338 .34028 .25699 .83865 -94.87 100.61)" d="m-151.75 93.336c-0.22883 0.2776-3.2402-0.03191-3.5967-0.08022-0.34164-0.04629-3.2181-0.53654-3.3388-0.85948-0.126-0.33698 1.6478-2.7902 1.8678-3.0748 0.21091-0.27273 2.0737-2.5187 2.4137-2.4618 0.35483 0.05938 1.5925 2.8221 1.7289 3.155 0.13074 0.31902 1.1444 3.0552 0.92508 3.3212z" fill="#ff7043"/>
  <rect x="35.576" y="120.92" width="30.618" height="6.3462" fill="#26c6da"/>
  <path transform="matrix(.63338 .34028 -.25699 .83865 155.8 100.61)" d="m-151.75 93.336c-0.22883 0.2776-3.2402-0.03191-3.5967-0.08022-0.34164-0.04629-3.2181-0.53654-3.3388-0.85948-0.126-0.33698 1.6478-2.7902 1.8678-3.0748 0.21091-0.27273 2.0737-2.5187 2.4137-2.4618 0.35483 0.05938 1.5925 2.8221 1.7289 3.155 0.13074 0.31902 1.1444 3.0552 0.92508 3.3212z" fill="#26c6da"/>
  <path transform="matrix(-.63338 .34028 .25699 .83865 -53.97 100.61)" d="m-151.75 93.336c-0.22883 0.2776-3.2402-0.03191-3.5967-0.08022-0.34164-0.04629-3.2181-0.53654-3.3388-0.85948-0.126-0.33698 1.6478-2.7902 1.8678-3.0748 0.21091-0.27273 2.0737-2.5187 2.4137-2.4618 0.35483 0.05938 1.5925 2.8221 1.7289 3.155 0.13074 0.31902 1.1444 3.0552 0.92508 3.3212z" fill="#26c6da"/>
  <rect x="-40.588" y="120.92" width="25.644" height="6.3462" fill="#ccc"/>
  <path transform="matrix(.53048 .34028 -.21524 .83865 60.104 100.61)" d="m-151.75 93.336c-0.22883 0.2776-3.2402-0.03191-3.5967-0.08022-0.34164-0.04629-3.2181-0.53654-3.3388-0.85948-0.126-0.33698 1.6478-2.7902 1.8678-3.0748 0.21091-0.27273 2.0737-2.5187 2.4137-2.4618 0.35483 0.05938 1.5925 2.8221 1.7289 3.155 0.13074 0.31902 1.1444 3.0552 0.92508 3.3212z" fill="#ccc"/>
  <path transform="matrix(-.53048 .34028 .21524 .83865 -115.59 100.61)" d="m-151.75 93.336c-0.22883 0.2776-3.2402-0.03191-3.5967-0.08022-0.34164-0.04629-3.2181-0.53654-3.3388-0.85948-0.126-0.33698 1.6478-2.7902 1.8678-3.0748 0.21091-0.27273 2.0737-2.5187 2.4137-2.4618 0.35483 0.05938 1.5925 2.8221 1.7289 3.155 0.13074 0.31902 1.1444 3.0552 0.92508 3.3212z" fill="#ccc"/>
  <rect x="-95.936" y="212.16" width="50.282" height="6.3462" fill="#ff7043"/>
  <path transform="matrix(.63338 .34028 -.25699 .83865 24.287 191.85)" d="m-151.75 93.336c-0.22883 0.2776-3.2402-0.03191-3.5967-0.08022-0.34164-0.04629-3.2181-0.53654-3.3388-0.85948-0.126-0.33698 1.6478-2.7902 1.8678-3.0748 0.21091-0.27273 2.0737-2.5187 2.4137-2.4618 0.35483 0.05938 1.5925 2.8221 1.7289 3.155 0.13074 0.31902 1.1444 3.0552 0.92508 3.3212z" fill="#ff7043"/>
  <path transform="matrix(-.63338 .34028 .25699 .83865 -165.98 191.85)" d="m-151.75 93.336c-0.22883 0.2776-3.2402-0.03191-3.5967-0.08022-0.34164-0.04629-3.2181-0.53654-3.3388-0.85948-0.126-0.33698 1.6478-2.7902 1.8678-3.0748 0.21091-0.27273 2.0737-2.5187 2.4137-2.4618 0.35483 0.05938 1.5925 2.8221 1.7289 3.155 0.13074 0.31902 1.1444 3.0552 0.92508 3.3212z" fill="#ff7043"/>
  <rect x="-95.464" y="227.27" width="50.282" height="6.3462" fill="#ff7043"/>
  <path transform="matrix(.63338 .34028 -.25699 .83865 24.759 206.95)" d="m-151.75 93.336c-0.22883 0.2776-3.2402-0.03191-3.5967-0.08022-0.34164-0.04629-3.2181-0.53654-3.3388-0.85948-0.126-0.33698 1.6478-2.7902 1.8678-3.0748 0.21091-0.27273 2.0737-2.5187 2.4137-2.4618 0.35483 0.05938 1.5925 2.8221 1.7289 3.155 0.13074 0.31902 1.1444 3.0552 0.92508 3.3212z" fill="#ff7043"/>
  <path transform="matrix(-.63338 .34028 .25699 .83865 -165.5 206.95)" d="m-151.75 93.336c-0.22883 0.2776-3.2402-0.03191-3.5967-0.08022-0.34164-0.04629-3.2181-0.53654-3.3388-0.85948-0.126-0.33698 1.6478-2.7902 1.8678-3.0748 0.21091-0.27273 2.0737-2.5187 2.4137-2.4618 0.35483 0.05938 1.5925 2.8221 1.7289 3.155 0.13074 0.31902 1.1444 3.0552 0.92508 3.3212z" fill="#ff7043"/>
  <rect x="-123.94" y="242.05" width="30.618" height="6.3462" fill="#26c6da"/>
  <path transform="matrix(.63338 .34028 -.25699 .83865 -3.7145 221.74)" d="m-151.75 93.336c-0.22883 0.2776-3.2402-0.03191-3.5967-0.08022-0.34164-0.04629-3.2181-0.53654-3.3388-0.85948-0.126-0.33698 1.6478-2.7902 1.8678-3.0748 0.21091-0.27273 2.0737-2.5187 2.4137-2.4618 0.35483 0.05938 1.5925 2.8221 1.7289 3.155 0.13074 0.31902 1.1444 3.0552 0.92508 3.3212z" fill="#26c6da"/>
  <path transform="matrix(-.63338 .34028 .25699 .83865 -213.48 221.74)" d="m-151.75 93.336c-0.22883 0.2776-3.2402-0.03191-3.5967-0.08022-0.34164-0.04629-3.2181-0.53654-3.3388-0.85948-0.126-0.33698 1.6478-2.7902 1.8678-3.0748 0.21091-0.27273 2.0737-2.5187 2.4137-2.4618 0.35483 0.05938 1.5925 2.8221 1.7289 3.155 0.13074 0.31902 1.1444 3.0552 0.92508 3.3212z" fill="#26c6da"/>
  <rect x="-80.363" y="241.42" width="80.316" height="6.3462" fill="#ff7043"/>
  <path transform="matrix(.63338 .34028 -.25699 .83865 39.861 221.11)" d="m-151.75 93.336c-0.22883 0.2776-3.2402-0.03191-3.5967-0.08022-0.34164-0.04629-3.2181-0.53654-3.3388-0.85948-0.126-0.33698 1.6478-2.7902 1.8678-3.0748 0.21091-0.27273 2.0737-2.5187 2.4137-2.4618 0.35483 0.05938 1.5925 2.8221 1.7289 3.155 0.13074 0.31902 1.1444 3.0552 0.92508 3.3212z" fill="#ff7043"/>
  <path transform="matrix(-.63338 .34028 .25699 .83865 -120.81 221.11)" d="m-151.75 93.336c-0.22883 0.2776-3.2402-0.03191-3.5967-0.08022-0.34164-0.04629-3.2181-0.53654-3.3388-0.85948-0.126-0.33698 1.6478-2.7902 1.8678-3.0748 0.21091-0.27273 2.0737-2.5187 2.4137-2.4618 0.35483 0.05938 1.5925 2.8221 1.7289 3.155 0.13074 0.31902 1.1444 3.0552 0.92508 3.3212z" fill="#ff7043"/>
  <rect x="-123.94" y="254.01" width="30.618" height="6.3462" fill="#26c6da"/>
  <path transform="matrix(.63338 .34028 -.25699 .83865 -3.7145 233.69)" d="m-151.75 93.336c-0.22883 0.2776-3.2402-0.03191-3.5967-0.08022-0.34164-0.04629-3.2181-0.53654-3.3388-0.85948-0.126-0.33698 1.6478-2.7902 1.8678-3.0748 0.21091-0.27273 2.0737-2.5187 2.4137-2.4618 0.35483 0.05938 1.5925 2.8221 1.7289 3.155 0.13074 0.31902 1.1444 3.0552 0.92508 3.3212z" fill="#26c6da"/>
  <path transform="matrix(-.63338 .34028 .25699 .83865 -213.48 233.69)" d="m-151.75 93.336c-0.22883 0.2776-3.2402-0.03191-3.5967-0.08022-0.34164-0.04629-3.2181-0.53654-3.3388-0.85948-0.126-0.33698 1.6478-2.7902 1.8678-3.0748 0.21091-0.27273 2.0737-2.5187 2.4137-2.4618 0.35483 0.05938 1.5925 2.8221 1.7289 3.155 0.13074 0.31902 1.1444 3.0552 0.92508 3.3212z" fill="#26c6da"/>
  <rect x="-163.58" y="57.971" width="115.06" height="3.5015" fill="#ff8f00"/>
  <rect transform="rotate(-90)" x="-71.964" y="-180.01" width="2.3256" height="273.66" fill="#2196f3" fill-rule="evenodd"/>
  <rect x="-33.798" y="211.85" width="80.316" height="6.3462" fill="#ccc"/>
  <path transform="matrix(.63338 .34028 -.25699 .83865 86.425 191.53)" d="m-151.75 93.336c-0.22883 0.2776-3.2402-0.03191-3.5967-0.08022-0.34164-0.04629-3.2181-0.53654-3.3388-0.85948-0.126-0.33698 1.6478-2.7902 1.8678-3.0748 0.21091-0.27273 2.0737-2.5187 2.4137-2.4618 0.35483 0.05938 1.5925 2.8221 1.7289 3.155 0.13074 0.31902 1.1444 3.0552 0.92508 3.3212z" fill="#ccc"/>
  <path transform="matrix(-.63338 .34028 .25699 .83865 -74.248 191.53)" d="m-151.75 93.336c-0.22883 0.2776-3.2402-0.03191-3.5967-0.08022-0.34164-0.04629-3.2181-0.53654-3.3388-0.85948-0.126-0.33698 1.6478-2.7902 1.8678-3.0748 0.21091-0.27273 2.0737-2.5187 2.4137-2.4618 0.35483 0.05938 1.5925 2.8221 1.7289 3.155 0.13074 0.31902 1.1444 3.0552 0.92508 3.3212z" fill="#ccc"/>
  <rect x="-32.54" y="226.32" width="80.316" height="6.3462" fill="#ccc"/>
  <path transform="matrix(.63338 .34028 -.25699 .83865 87.683 206)" d="m-151.75 93.336c-0.22883 0.2776-3.2402-0.03191-3.5967-0.08022-0.34164-0.04629-3.2181-0.53654-3.3388-0.85948-0.126-0.33698 1.6478-2.7902 1.8678-3.0748 0.21091-0.27273 2.0737-2.5187 2.4137-2.4618 0.35483 0.05938 1.5925 2.8221 1.7289 3.155 0.13074 0.31902 1.1444 3.0552 0.92508 3.3212z" fill="#ccc"/>
  <path transform="matrix(-.63338 .34028 .25699 .83865 -72.99 206)" d="m-151.75 93.336c-0.22883 0.2776-3.2402-0.03191-3.5967-0.08022-0.34164-0.04629-3.2181-0.53654-3.3388-0.85948-0.126-0.33698 1.6478-2.7902 1.8678-3.0748 0.21091-0.27273 2.0737-2.5187 2.4137-2.4618 0.35483 0.05938 1.5925 2.8221 1.7289 3.155 0.13074 0.31902 1.1444 3.0552 0.92508 3.3212z" fill="#ccc"/>
  <rect x="11.979" y="242.05" width="30.618" height="6.3462" fill="#ccc"/>
  <path transform="matrix(.63338 .34028 -.25699 .83865 132.2 221.74)" d="m-151.75 93.336c-0.22883 0.2776-3.2402-0.03191-3.5967-0.08022-0.34164-0.04629-3.2181-0.53654-3.3388-0.85948-0.126-0.33698 1.6478-2.7902 1.8678-3.0748 0.21091-0.27273 2.0737-2.5187 2.4137-2.4618 0.35483 0.05938 1.5925 2.8221 1.7289 3.155 0.13074 0.31902 1.1444 3.0552 0.92508 3.3212z" fill="#ccc"/>
  <path transform="matrix(-.63338 .34028 .25699 .83865 -77.566 221.74)" d="m-151.75 93.336c-0.22883 0.2776-3.2402-0.03191-3.5967-0.08022-0.34164-0.04629-3.2181-0.53654-3.3388-0.85948-0.126-0.33698 1.6478-2.7902 1.8678-3.0748 0.21091-0.27273 2.0737-2.5187 2.4137-2.4618 0.35483 0.05938 1.5925 2.8221 1.7289 3.155 0.13074 0.31902 1.1444 3.0552 0.92508 3.3212z" fill="#ccc"/>
  <rect x="-79.45" y="254.32" width="142.48" height="6.3462" fill="#ccc"/>
  <path transform="matrix(.61532 .34028 -.24966 .83865 37.346 234.01)" d="m-151.75 93.336c-0.22883 0.2776-3.2402-0.03191-3.5967-0.08022-0.34164-0.04629-3.2181-0.53654-3.3388-0.85948-0.126-0.33698 1.6478-2.7902 1.8678-3.0748 0.21091-0.27273 2.0737-2.5187 2.4137-2.4618 0.35483 0.05938 1.5925 2.8221 1.7289 3.155 0.13074 0.31902 1.1444 3.0552 0.92508 3.3212z" fill="#ccc"/>
  <path transform="matrix(-.61532 .34028 .24966 .83865 -53.962 234.01)" d="m-151.75 93.336c-0.22883 0.2776-3.2402-0.03191-3.5967-0.08022-0.34164-0.04629-3.2181-0.53654-3.3388-0.85948-0.126-0.33698 1.6478-2.7902 1.8678-3.0748 0.21091-0.27273 2.0737-2.5187 2.4137-2.4618 0.35483 0.05938 1.5925 2.8221 1.7289 3.155 0.13074 0.31902 1.1444 3.0552 0.92508 3.3212z" fill="#ccc"/>
  <rect x="-122.58" y="267.78" width="30.618" height="6.3462" fill="#26c6da"/>
  <path transform="matrix(.63338 .34028 -.25699 .83865 -2.3535 247.46)" d="m-151.75 93.336c-0.22883 0.2776-3.2402-0.03191-3.5967-0.08022-0.34164-0.04629-3.2181-0.53654-3.3388-0.85948-0.126-0.33698 1.6478-2.7902 1.8678-3.0748 0.21091-0.27273 2.0737-2.5187 2.4137-2.4618 0.35483 0.05938 1.5925 2.8221 1.7289 3.155 0.13074 0.31902 1.1444 3.0552 0.92508 3.3212z" fill="#26c6da"/>
  <path transform="matrix(-.63338 .34028 .25699 .83865 -212.12 247.46)" d="m-151.75 93.336c-0.22883 0.2776-3.2402-0.03191-3.5967-0.08022-0.34164-0.04629-3.2181-0.53654-3.3388-0.85948-0.126-0.33698 1.6478-2.7902 1.8678-3.0748 0.21091-0.27273 2.0737-2.5187 2.4137-2.4618 0.35483 0.05938 1.5925 2.8221 1.7289 3.155 0.13074 0.31902 1.1444 3.0552 0.92508 3.3212z" fill="#26c6da"/>
  <rect x="-122.58" y="283.51" width="30.618" height="6.3462" fill="#26c6da"/>
  <path transform="matrix(.63338 .34028 -.25699 .83865 -2.3535 263.2)" d="m-151.75 93.336c-0.22883 0.2776-3.2402-0.03191-3.5967-0.08022-0.34164-0.04629-3.2181-0.53654-3.3388-0.85948-0.126-0.33698 1.6478-2.7902 1.8678-3.0748 0.21091-0.27273 2.0737-2.5187 2.4137-2.4618 0.35483 0.05938 1.5925 2.8221 1.7289 3.155 0.13074 0.31902 1.1444 3.0552 0.92508 3.3212z" fill="#26c6da"/>
  <path transform="matrix(-.63338 .34028 .25699 .83865 -212.12 263.2)" d="m-151.75 93.336c-0.22883 0.2776-3.2402-0.03191-3.5967-0.08022-0.34164-0.04629-3.2181-0.53654-3.3388-0.85948-0.126-0.33698 1.6478-2.7902 1.8678-3.0748 0.21091-0.27273 2.0737-2.5187 2.4137-2.4618 0.35483 0.05938 1.5925 2.8221 1.7289 3.155 0.13074 0.31902 1.1444 3.0552 0.92508 3.3212z" fill="#26c6da"/>
  <rect x="-79.474" y="267.78" width="50.282" height="6.3462" fill="#ff7043"/>
  <path transform="matrix(.63338 .34028 -.25699 .83865 40.75 247.46)" d="m-151.75 93.336c-0.22883 0.2776-3.2402-0.03191-3.5967-0.08022-0.34164-0.04629-3.2181-0.53654-3.3388-0.85948-0.126-0.33698 1.6478-2.7902 1.8678-3.0748 0.21091-0.27273 2.0737-2.5187 2.4137-2.4618 0.35483 0.05938 1.5925 2.8221 1.7289 3.155 0.13074 0.31902 1.1444 3.0552 0.92508 3.3212z" fill="#ff7043"/>
  <path transform="matrix(-.63338 .34028 .25699 .83865 -149.51 247.46)" d="m-151.75 93.336c-0.22883 0.2776-3.2402-0.03191-3.5967-0.08022-0.34164-0.04629-3.2181-0.53654-3.3388-0.85948-0.126-0.33698 1.6478-2.7902 1.8678-3.0748 0.21091-0.27273 2.0737-2.5187 2.4137-2.4618 0.35483 0.05938 1.5925 2.8221 1.7289 3.155 0.13074 0.31902 1.1444 3.0552 0.92508 3.3212z" fill="#ff7043"/>
  <rect x="-79.002" y="282.88" width="50.282" height="6.3462" fill="#ff7043"/>
  <path transform="matrix(.63338 .34028 -.25699 .83865 41.222 262.57)" d="m-151.75 93.336c-0.22883 0.2776-3.2402-0.03191-3.5967-0.08022-0.34164-0.04629-3.2181-0.53654-3.3388-0.85948-0.126-0.33698 1.6478-2.7902 1.8678-3.0748 0.21091-0.27273 2.0737-2.5187 2.4137-2.4618 0.35483 0.05938 1.5925 2.8221 1.7289 3.155 0.13074 0.31902 1.1444 3.0552 0.92508 3.3212z" fill="#ff7043"/>
  <path transform="matrix(-.63338 .34028 .25699 .83865 -149.04 262.57)" d="m-151.75 93.336c-0.22883 0.2776-3.2402-0.03191-3.5967-0.08022-0.34164-0.04629-3.2181-0.53654-3.3388-0.85948-0.126-0.33698 1.6478-2.7902 1.8678-3.0748 0.21091-0.27273 2.0737-2.5187 2.4137-2.4618 0.35483 0.05938 1.5925 2.8221 1.7289 3.155 0.13074 0.31902 1.1444 3.0552 0.92508 3.3212z" fill="#ff7043"/>
  <rect x="-17.336" y="267.47" width="80.316" height="6.3462" fill="#ccc"/>
  <path transform="matrix(.63338 .34028 -.25699 .83865 102.89 247.15)" d="m-151.75 93.336c-0.22883 0.2776-3.2402-0.03191-3.5967-0.08022-0.34164-0.04629-3.2181-0.53654-3.3388-0.85948-0.126-0.33698 1.6478-2.7902 1.8678-3.0748 0.21091-0.27273 2.0737-2.5187 2.4137-2.4618 0.35483 0.05938 1.5925 2.8221 1.7289 3.155 0.13074 0.31902 1.1444 3.0552 0.92508 3.3212z" fill="#ccc"/>
  <path transform="matrix(-.63338 .34028 .25699 .83865 -57.786 247.15)" d="m-151.75 93.336c-0.22883 0.2776-3.2402-0.03191-3.5967-0.08022-0.34164-0.04629-3.2181-0.53654-3.3388-0.85948-0.126-0.33698 1.6478-2.7902 1.8678-3.0748 0.21091-0.27273 2.0737-2.5187 2.4137-2.4618 0.35483 0.05938 1.5925 2.8221 1.7289 3.155 0.13074 0.31902 1.1444 3.0552 0.92508 3.3212z" fill="#ccc"/>
  <rect x="-16.077" y="281.94" width="80.316" height="6.3462" fill="#ccc"/>
  <path transform="matrix(.63338 .34028 -.25699 .83865 104.15 261.62)" d="m-151.75 93.336c-0.22883 0.2776-3.2402-0.03191-3.5967-0.08022-0.34164-0.04629-3.2181-0.53654-3.3388-0.85948-0.126-0.33698 1.6478-2.7902 1.8678-3.0748 0.21091-0.27273 2.0737-2.5187 2.4137-2.4618 0.35483 0.05938 1.5925 2.8221 1.7289 3.155 0.13074 0.31902 1.1444 3.0552 0.92508 3.3212z" fill="#ccc"/>
  <path transform="matrix(-.63338 .34028 .25699 .83865 -56.527 261.62)" d="m-151.75 93.336c-0.22883 0.2776-3.2402-0.03191-3.5967-0.08022-0.34164-0.04629-3.2181-0.53654-3.3388-0.85948-0.126-0.33698 1.6478-2.7902 1.8678-3.0748 0.21091-0.27273 2.0737-2.5187 2.4137-2.4618 0.35483 0.05938 1.5925 2.8221 1.7289 3.155 0.13074 0.31902 1.1444 3.0552 0.92508 3.3212z" fill="#ccc"/>
  <rect x="-122.58" y="295.37" width="30.618" height="6.3462" fill="#26c6da"/>
  <path transform="matrix(.63338 .34028 -.25699 .83865 -2.3535 275.05)" d="m-151.75 93.336c-0.22883 0.2776-3.2402-0.03191-3.5967-0.08022-0.34164-0.04629-3.2181-0.53654-3.3388-0.85948-0.126-0.33698 1.6478-2.7902 1.8678-3.0748 0.21091-0.27273 2.0737-2.5187 2.4137-2.4618 0.35483 0.05938 1.5925 2.8221 1.7289 3.155 0.13074 0.31902 1.1444 3.0552 0.92508 3.3212z" fill="#26c6da"/>
  <path transform="matrix(-.63338 .34028 .25699 .83865 -212.12 275.05)" d="m-151.75 93.336c-0.22883 0.2776-3.2402-0.03191-3.5967-0.08022-0.34164-0.04629-3.2181-0.53654-3.3388-0.85948-0.126-0.33698 1.6478-2.7902 1.8678-3.0748 0.21091-0.27273 2.0737-2.5187 2.4137-2.4618 0.35483 0.05938 1.5925 2.8221 1.7289 3.155 0.13074 0.31902 1.1444 3.0552 0.92508 3.3212z" fill="#26c6da"/>
  <rect x="-122.58" y="311.1" width="30.618" height="6.3462" fill="#26c6da"/>
  <path transform="matrix(.63338 .34028 -.25699 .83865 -2.3535 290.78)" d="m-151.75 93.336c-0.22883 0.2776-3.2402-0.03191-3.5967-0.08022-0.34164-0.04629-3.2181-0.53654-3.3388-0.85948-0.126-0.33698 1.6478-2.7902 1.8678-3.0748 0.21091-0.27273 2.0737-2.5187 2.4137-2.4618 0.35483 0.05938 1.5925 2.8221 1.7289 3.155 0.13074 0.31902 1.1444 3.0552 0.92508 3.3212z" fill="#26c6da"/>
  <path transform="matrix(-.63338 .34028 .25699 .83865 -212.12 290.78)" d="m-151.75 93.336c-0.22883 0.2776-3.2402-0.03191-3.5967-0.08022-0.34164-0.04629-3.2181-0.53654-3.3388-0.85948-0.126-0.33698 1.6478-2.7902 1.8678-3.0748 0.21091-0.27273 2.0737-2.5187 2.4137-2.4618 0.35483 0.05938 1.5925 2.8221 1.7289 3.155 0.13074 0.31902 1.1444 3.0552 0.92508 3.3212z" fill="#26c6da"/>
  <rect x="-79.474" y="295.37" width="50.282" height="6.3462" fill="#ff7043"/>
  <path transform="matrix(.63338 .34028 -.25699 .83865 40.75 275.05)" d="m-151.75 93.336c-0.22883 0.2776-3.2402-0.03191-3.5967-0.08022-0.34164-0.04629-3.2181-0.53654-3.3388-0.85948-0.126-0.33698 1.6478-2.7902 1.8678-3.0748 0.21091-0.27273 2.0737-2.5187 2.4137-2.4618 0.35483 0.05938 1.5925 2.8221 1.7289 3.155 0.13074 0.31902 1.1444 3.0552 0.92508 3.3212z" fill="#ff7043"/>
  <path transform="matrix(-.63338 .34028 .25699 .83865 -149.51 275.05)" d="m-151.75 93.336c-0.22883 0.2776-3.2402-0.03191-3.5967-0.08022-0.34164-0.04629-3.2181-0.53654-3.3388-0.85948-0.126-0.33698 1.6478-2.7902 1.8678-3.0748 0.21091-0.27273 2.0737-2.5187 2.4137-2.4618 0.35483 0.05938 1.5925 2.8221 1.7289 3.155 0.13074 0.31902 1.1444 3.0552 0.92508 3.3212z" fill="#ff7043"/>
  <rect x="-79.002" y="310.47" width="50.282" height="6.3462" fill="#ff7043"/>
  <path transform="matrix(.63338 .34028 -.25699 .83865 41.222 290.15)" d="m-151.75 93.336c-0.22883 0.2776-3.2402-0.03191-3.5967-0.08022-0.34164-0.04629-3.2181-0.53654-3.3388-0.85948-0.126-0.33698 1.6478-2.7902 1.8678-3.0748 0.21091-0.27273 2.0737-2.5187 2.4137-2.4618 0.35483 0.05938 1.5925 2.8221 1.7289 3.155 0.13074 0.31902 1.1444 3.0552 0.92508 3.3212z" fill="#ff7043"/>
  <path transform="matrix(-.63338 .34028 .25699 .83865 -149.04 290.15)" d="m-151.75 93.336c-0.22883 0.2776-3.2402-0.03191-3.5967-0.08022-0.34164-0.04629-3.2181-0.53654-3.3388-0.85948-0.126-0.33698 1.6478-2.7902 1.8678-3.0748 0.21091-0.27273 2.0737-2.5187 2.4137-2.4618 0.35483 0.05938 1.5925 2.8221 1.7289 3.155 0.13074 0.31902 1.1444 3.0552 0.92508 3.3212z" fill="#ff7043"/>
  <rect x="-17.336" y="295.05" width="80.316" height="6.3462" fill="#ccc"/>
  <path transform="matrix(.63338 .34028 -.25699 .83865 102.89 274.74)" d="m-151.75 93.336c-0.22883 0.2776-3.2402-0.03191-3.5967-0.08022-0.34164-0.04629-3.2181-0.53654-3.3388-0.85948-0.126-0.33698 1.6478-2.7902 1.8678-3.0748 0.21091-0.27273 2.0737-2.5187 2.4137-2.4618 0.35483 0.05938 1.5925 2.8221 1.7289 3.155 0.13074 0.31902 1.1444 3.0552 0.92508 3.3212z" fill="#ccc"/>
  <path transform="matrix(-.63338 .34028 .25699 .83865 -57.786 274.74)" d="m-151.75 93.336c-0.22883 0.2776-3.2402-0.03191-3.5967-0.08022-0.34164-0.04629-3.2181-0.53654-3.3388-0.85948-0.126-0.33698 1.6478-2.7902 1.8678-3.0748 0.21091-0.27273 2.0737-2.5187 2.4137-2.4618 0.35483 0.05938 1.5925 2.8221 1.7289 3.155 0.13074 0.31902 1.1444 3.0552 0.92508 3.3212z" fill="#ccc"/>
  <rect x="-16.077" y="309.53" width="80.316" height="6.3462" fill="#ccc"/>
  <path transform="matrix(.63338 .34028 -.25699 .83865 104.15 289.21)" d="m-151.75 93.336c-0.22883 0.2776-3.2402-0.03191-3.5967-0.08022-0.34164-0.04629-3.2181-0.53654-3.3388-0.85948-0.126-0.33698 1.6478-2.7902 1.8678-3.0748 0.21091-0.27273 2.0737-2.5187 2.4137-2.4618 0.35483 0.05938 1.5925 2.8221 1.7289 3.155 0.13074 0.31902 1.1444 3.0552 0.92508 3.3212z" fill="#ccc"/>
  <path transform="matrix(-.63338 .34028 .25699 .83865 -56.527 289.21)" d="m-151.75 93.336c-0.22883 0.2776-3.2402-0.03191-3.5967-0.08022-0.34164-0.04629-3.2181-0.53654-3.3388-0.85948-0.126-0.33698 1.6478-2.7902 1.8678-3.0748 0.21091-0.27273 2.0737-2.5187 2.4137-2.4618 0.35483 0.05938 1.5925 2.8221 1.7289 3.155 0.13074 0.31902 1.1444 3.0552 0.92508 3.3212z" fill="#ccc"/>
  <rect x="-139.04" y="328.74" width="30.618" height="6.3462" fill="#26c6da"/>
  <path transform="matrix(.63338 .34028 -.25699 .83865 -18.816 308.42)" d="m-151.75 93.336c-0.22883 0.2776-3.2402-0.03191-3.5967-0.08022-0.34164-0.04629-3.2181-0.53654-3.3388-0.85948-0.126-0.33698 1.6478-2.7902 1.8678-3.0748 0.21091-0.27273 2.0737-2.5187 2.4137-2.4618 0.35483 0.05938 1.5925 2.8221 1.7289 3.155 0.13074 0.31902 1.1444 3.0552 0.92508 3.3212z" fill="#26c6da"/>
  <path transform="matrix(-.63338 .34028 .25699 .83865 -228.58 308.42)" d="m-151.75 93.336c-0.22883 0.2776-3.2402-0.03191-3.5967-0.08022-0.34164-0.04629-3.2181-0.53654-3.3388-0.85948-0.126-0.33698 1.6478-2.7902 1.8678-3.0748 0.21091-0.27273 2.0737-2.5187 2.4137-2.4618 0.35483 0.05938 1.5925 2.8221 1.7289 3.155 0.13074 0.31902 1.1444 3.0552 0.92508 3.3212z" fill="#26c6da"/>
  <rect x="-139.04" y="344.47" width="30.618" height="6.3462" fill="#26c6da"/>
  <path transform="matrix(.63338 .34028 -.25699 .83865 -18.816 324.15)" d="m-151.75 93.336c-0.22883 0.2776-3.2402-0.03191-3.5967-0.08022-0.34164-0.04629-3.2181-0.53654-3.3388-0.85948-0.126-0.33698 1.6478-2.7902 1.8678-3.0748 0.21091-0.27273 2.0737-2.5187 2.4137-2.4618 0.35483 0.05938 1.5925 2.8221 1.7289 3.155 0.13074 0.31902 1.1444 3.0552 0.92508 3.3212z" fill="#26c6da"/>
  <path transform="matrix(-.63338 .34028 .25699 .83865 -228.58 324.15)" d="m-151.75 93.336c-0.22883 0.2776-3.2402-0.03191-3.5967-0.08022-0.34164-0.04629-3.2181-0.53654-3.3388-0.85948-0.126-0.33698 1.6478-2.7902 1.8678-3.0748 0.21091-0.27273 2.0737-2.5187 2.4137-2.4618 0.35483 0.05938 1.5925 2.8221 1.7289 3.155 0.13074 0.31902 1.1444 3.0552 0.92508 3.3212z" fill="#26c6da"/>
  <rect x="-95.936" y="328.74" width="50.282" height="6.3462" fill="#ff7043"/>
  <path transform="matrix(.63338 .34028 -.25699 .83865 24.287 308.42)" d="m-151.75 93.336c-0.22883 0.2776-3.2402-0.03191-3.5967-0.08022-0.34164-0.04629-3.2181-0.53654-3.3388-0.85948-0.126-0.33698 1.6478-2.7902 1.8678-3.0748 0.21091-0.27273 2.0737-2.5187 2.4137-2.4618 0.35483 0.05938 1.5925 2.8221 1.7289 3.155 0.13074 0.31902 1.1444 3.0552 0.92508 3.3212z" fill="#ff7043"/>
  <path transform="matrix(-.63338 .34028 .25699 .83865 -165.98 308.42)" d="m-151.75 93.336c-0.22883 0.2776-3.2402-0.03191-3.5967-0.08022-0.34164-0.04629-3.2181-0.53654-3.3388-0.85948-0.126-0.33698 1.6478-2.7902 1.8678-3.0748 0.21091-0.27273 2.0737-2.5187 2.4137-2.4618 0.35483 0.05938 1.5925 2.8221 1.7289 3.155 0.13074 0.31902 1.1444 3.0552 0.92508 3.3212z" fill="#ff7043"/>
  <rect x="-95.464" y="343.84" width="50.282" height="6.3462" fill="#ff7043"/>
  <path transform="matrix(.63338 .34028 -.25699 .83865 24.759 323.52)" d="m-151.75 93.336c-0.22883 0.2776-3.2402-0.03191-3.5967-0.08022-0.34164-0.04629-3.2181-0.53654-3.3388-0.85948-0.126-0.33698 1.6478-2.7902 1.8678-3.0748 0.21091-0.27273 2.0737-2.5187 2.4137-2.4618 0.35483 0.05938 1.5925 2.8221 1.7289 3.155 0.13074 0.31902 1.1444 3.0552 0.92508 3.3212z" fill="#ff7043"/>
  <path transform="matrix(-.63338 .34028 .25699 .83865 -165.5 323.52)" d="m-151.75 93.336c-0.22883 0.2776-3.2402-0.03191-3.5967-0.08022-0.34164-0.04629-3.2181-0.53654-3.3388-0.85948-0.126-0.33698 1.6478-2.7902 1.8678-3.0748 0.21091-0.27273 2.0737-2.5187 2.4137-2.4618 0.35483 0.05938 1.5925 2.8221 1.7289 3.155 0.13074 0.31902 1.1444 3.0552 0.92508 3.3212z" fill="#ff7043"/>
  <rect x="-33.798" y="328.42" width="80.316" height="6.3462" fill="#ccc"/>
  <path transform="matrix(.63338 .34028 -.25699 .83865 86.425 308.11)" d="m-151.75 93.336c-0.22883 0.2776-3.2402-0.03191-3.5967-0.08022-0.34164-0.04629-3.2181-0.53654-3.3388-0.85948-0.126-0.33698 1.6478-2.7902 1.8678-3.0748 0.21091-0.27273 2.0737-2.5187 2.4137-2.4618 0.35483 0.05938 1.5925 2.8221 1.7289 3.155 0.13074 0.31902 1.1444 3.0552 0.92508 3.3212z" fill="#ccc"/>
  <path transform="matrix(-.63338 .34028 .25699 .83865 -74.248 308.11)" d="m-151.75 93.336c-0.22883 0.2776-3.2402-0.03191-3.5967-0.08022-0.34164-0.04629-3.2181-0.53654-3.3388-0.85948-0.126-0.33698 1.6478-2.7902 1.8678-3.0748 0.21091-0.27273 2.0737-2.5187 2.4137-2.4618 0.35483 0.05938 1.5925 2.8221 1.7289 3.155 0.13074 0.31902 1.1444 3.0552 0.92508 3.3212z" fill="#ccc"/>
  <rect x="-32.54" y="342.9" width="80.316" height="6.3462" fill="#ccc"/>
  <path transform="matrix(.63338 .34028 -.25699 .83865 87.683 322.58)" d="m-151.75 93.336c-0.22883 0.2776-3.2402-0.03191-3.5967-0.08022-0.34164-0.04629-3.2181-0.53654-3.3388-0.85948-0.126-0.33698 1.6478-2.7902 1.8678-3.0748 0.21091-0.27273 2.0737-2.5187 2.4137-2.4618 0.35483 0.05938 1.5925 2.8221 1.7289 3.155 0.13074 0.31902 1.1444 3.0552 0.92508 3.3212z" fill="#ccc"/>
  <path transform="matrix(-.63338 .34028 .25699 .83865 -72.99 322.58)" d="m-151.75 93.336c-0.22883 0.2776-3.2402-0.03191-3.5967-0.08022-0.34164-0.04629-3.2181-0.53654-3.3388-0.85948-0.126-0.33698 1.6478-2.7902 1.8678-3.0748 0.21091-0.27273 2.0737-2.5187 2.4137-2.4618 0.35483 0.05938 1.5925 2.8221 1.7289 3.155 0.13074 0.31902 1.1444 3.0552 0.92508 3.3212z" fill="#ccc"/>
  <rect x="-123.94" y="358.63" width="30.618" height="6.3462" fill="#26c6da"/>
  <path transform="matrix(.63338 .34028 -.25699 .83865 -3.7145 338.31)" d="m-151.75 93.336c-0.22883 0.2776-3.2402-0.03191-3.5967-0.08022-0.34164-0.04629-3.2181-0.53654-3.3388-0.85948-0.126-0.33698 1.6478-2.7902 1.8678-3.0748 0.21091-0.27273 2.0737-2.5187 2.4137-2.4618 0.35483 0.05938 1.5925 2.8221 1.7289 3.155 0.13074 0.31902 1.1444 3.0552 0.92508 3.3212z" fill="#26c6da"/>
  <path transform="matrix(-.63338 .34028 .25699 .83865 -213.48 338.31)" d="m-151.75 93.336c-0.22883 0.2776-3.2402-0.03191-3.5967-0.08022-0.34164-0.04629-3.2181-0.53654-3.3388-0.85948-0.126-0.33698 1.6478-2.7902 1.8678-3.0748 0.21091-0.27273 2.0737-2.5187 2.4137-2.4618 0.35483 0.05938 1.5925 2.8221 1.7289 3.155 0.13074 0.31902 1.1444 3.0552 0.92508 3.3212z" fill="#26c6da"/>
  <rect x="-80.363" y="358" width="80.316" height="6.3462" fill="#ff7043"/>
  <path transform="matrix(.63338 .34028 -.25699 .83865 39.861 337.68)" d="m-151.75 93.336c-0.22883 0.2776-3.2402-0.03191-3.5967-0.08022-0.34164-0.04629-3.2181-0.53654-3.3388-0.85948-0.126-0.33698 1.6478-2.7902 1.8678-3.0748 0.21091-0.27273 2.0737-2.5187 2.4137-2.4618 0.35483 0.05938 1.5925 2.8221 1.7289 3.155 0.13074 0.31902 1.1444 3.0552 0.92508 3.3212z" fill="#ff7043"/>
  <path transform="matrix(-.63338 .34028 .25699 .83865 -120.81 337.68)" d="m-151.75 93.336c-0.22883 0.2776-3.2402-0.03191-3.5967-0.08022-0.34164-0.04629-3.2181-0.53654-3.3388-0.85948-0.126-0.33698 1.6478-2.7902 1.8678-3.0748 0.21091-0.27273 2.0737-2.5187 2.4137-2.4618 0.35483 0.05938 1.5925 2.8221 1.7289 3.155 0.13074 0.31902 1.1444 3.0552 0.92508 3.3212z" fill="#ff7043"/>
  <rect x="-123.94" y="370.58" width="30.618" height="6.3462" fill="#26c6da"/>
  <path transform="matrix(.63338 .34028 -.25699 .83865 -3.7145 350.27)" d="m-151.75 93.336c-0.22883 0.2776-3.2402-0.03191-3.5967-0.08022-0.34164-0.04629-3.2181-0.53654-3.3388-0.85948-0.126-0.33698 1.6478-2.7902 1.8678-3.0748 0.21091-0.27273 2.0737-2.5187 2.4137-2.4618 0.35483 0.05938 1.5925 2.8221 1.7289 3.155 0.13074 0.31902 1.1444 3.0552 0.92508 3.3212z" fill="#26c6da"/>
  <path transform="matrix(-.63338 .34028 .25699 .83865 -213.48 350.27)" d="m-151.75 93.336c-0.22883 0.2776-3.2402-0.03191-3.5967-0.08022-0.34164-0.04629-3.2181-0.53654-3.3388-0.85948-0.126-0.33698 1.6478-2.7902 1.8678-3.0748 0.21091-0.27273 2.0737-2.5187 2.4137-2.4618 0.35483 0.05938 1.5925 2.8221 1.7289 3.155 0.13074 0.31902 1.1444 3.0552 0.92508 3.3212z" fill="#26c6da"/>
  <rect x="11.979" y="358.63" width="30.618" height="6.3462" fill="#ccc"/>
  <path transform="matrix(.63338 .34028 -.25699 .83865 132.2 338.31)" d="m-151.75 93.336c-0.22883 0.2776-3.2402-0.03191-3.5967-0.08022-0.34164-0.04629-3.2181-0.53654-3.3388-0.85948-0.126-0.33698 1.6478-2.7902 1.8678-3.0748 0.21091-0.27273 2.0737-2.5187 2.4137-2.4618 0.35483 0.05938 1.5925 2.8221 1.7289 3.155 0.13074 0.31902 1.1444 3.0552 0.92508 3.3212z" fill="#ccc"/>
  <path transform="matrix(-.63338 .34028 .25699 .83865 -77.566 338.31)" d="m-151.75 93.336c-0.22883 0.2776-3.2402-0.03191-3.5967-0.08022-0.34164-0.04629-3.2181-0.53654-3.3388-0.85948-0.126-0.33698 1.6478-2.7902 1.8678-3.0748 0.21091-0.27273 2.0737-2.5187 2.4137-2.4618 0.35483 0.05938 1.5925 2.8221 1.7289 3.155 0.13074 0.31902 1.1444 3.0552 0.92508 3.3212z" fill="#ccc"/>
  <rect x="-79.45" y="370.9" width="142.48" height="6.3462" fill="#ccc"/>
  <path transform="matrix(.61532 .34028 -.24966 .83865 37.346 350.58)" d="m-151.75 93.336c-0.22883 0.2776-3.2402-0.03191-3.5967-0.08022-0.34164-0.04629-3.2181-0.53654-3.3388-0.85948-0.126-0.33698 1.6478-2.7902 1.8678-3.0748 0.21091-0.27273 2.0737-2.5187 2.4137-2.4618 0.35483 0.05938 1.5925 2.8221 1.7289 3.155 0.13074 0.31902 1.1444 3.0552 0.92508 3.3212z" fill="#ccc"/>
  <path transform="matrix(-.61532 .34028 .24966 .83865 -53.962 350.58)" d="m-151.75 93.336c-0.22883 0.2776-3.2402-0.03191-3.5967-0.08022-0.34164-0.04629-3.2181-0.53654-3.3388-0.85948-0.126-0.33698 1.6478-2.7902 1.8678-3.0748 0.21091-0.27273 2.0737-2.5187 2.4137-2.4618 0.35483 0.05938 1.5925 2.8221 1.7289 3.155 0.13074 0.31902 1.1444 3.0552 0.92508 3.3212z" fill="#ccc"/>
  <rect x="-123.94" y="384.43" width="30.618" height="6.3462" fill="#26c6da"/>
  <path transform="matrix(.63338 .34028 -.25699 .83865 -3.7145 364.11)" d="m-151.75 93.336c-0.22883 0.2776-3.2402-0.03191-3.5967-0.08022-0.34164-0.04629-3.2181-0.53654-3.3388-0.85948-0.126-0.33698 1.6478-2.7902 1.8678-3.0748 0.21091-0.27273 2.0737-2.5187 2.4137-2.4618 0.35483 0.05938 1.5925 2.8221 1.7289 3.155 0.13074 0.31902 1.1444 3.0552 0.92508 3.3212z" fill="#26c6da"/>
  <path transform="matrix(-.63338 .34028 .25699 .83865 -213.48 364.11)" d="m-151.75 93.336c-0.22883 0.2776-3.2402-0.03191-3.5967-0.08022-0.34164-0.04629-3.2181-0.53654-3.3388-0.85948-0.126-0.33698 1.6478-2.7902 1.8678-3.0748 0.21091-0.27273 2.0737-2.5187 2.4137-2.4618 0.35483 0.05938 1.5925 2.8221 1.7289 3.155 0.13074 0.31902 1.1444 3.0552 0.92508 3.3212z" fill="#26c6da"/>
  <rect x="-80.363" y="383.8" width="80.316" height="6.3462" fill="#ff7043"/>
  <path transform="matrix(.63338 .34028 -.25699 .83865 39.861 363.48)" d="m-151.75 93.336c-0.22883 0.2776-3.2402-0.03191-3.5967-0.08022-0.34164-0.04629-3.2181-0.53654-3.3388-0.85948-0.126-0.33698 1.6478-2.7902 1.8678-3.0748 0.21091-0.27273 2.0737-2.5187 2.4137-2.4618 0.35483 0.05938 1.5925 2.8221 1.7289 3.155 0.13074 0.31902 1.1444 3.0552 0.92508 3.3212z" fill="#ff7043"/>
  <path transform="matrix(-.63338 .34028 .25699 .83865 -120.81 363.48)" d="m-151.75 93.336c-0.22883 0.2776-3.2402-0.03191-3.5967-0.08022-0.34164-0.04629-3.2181-0.53654-3.3388-0.85948-0.126-0.33698 1.6478-2.7902 1.8678-3.0748 0.21091-0.27273 2.0737-2.5187 2.4137-2.4618 0.35483 0.05938 1.5925 2.8221 1.7289 3.155 0.13074 0.31902 1.1444 3.0552 0.92508 3.3212z" fill="#ff7043"/>
  <rect x="11.979" y="384.43" width="30.618" height="6.3462" fill="#ccc"/>
  <path transform="matrix(.63338 .34028 -.25699 .83865 132.2 364.11)" d="m-151.75 93.336c-0.22883 0.2776-3.2402-0.03191-3.5967-0.08022-0.34164-0.04629-3.2181-0.53654-3.3388-0.85948-0.126-0.33698 1.6478-2.7902 1.8678-3.0748 0.21091-0.27273 2.0737-2.5187 2.4137-2.4618 0.35483 0.05938 1.5925 2.8221 1.7289 3.155 0.13074 0.31902 1.1444 3.0552 0.92508 3.3212z" fill="#ccc"/>
  <path transform="matrix(-.63338 .34028 .25699 .83865 -77.566 364.11)" d="m-151.75 93.336c-0.22883 0.2776-3.2402-0.03191-3.5967-0.08022-0.34164-0.04629-3.2181-0.53654-3.3388-0.85948-0.126-0.33698 1.6478-2.7902 1.8678-3.0748 0.21091-0.27273 2.0737-2.5187 2.4137-2.4618 0.35483 0.05938 1.5925 2.8221 1.7289 3.155 0.13074 0.31902 1.1444 3.0552 0.92508 3.3212z" fill="#ccc"/>
  <rect x="-125.2" y="397.56" width="30.618" height="6.3462" fill="#26c6da"/>
  <path transform="matrix(.63338 .34028 -.25699 .83865 -4.973 377.24)" d="m-151.75 93.336c-0.22883 0.2776-3.2402-0.03191-3.5967-0.08022-0.34164-0.04629-3.2181-0.53654-3.3388-0.85948-0.126-0.33698 1.6478-2.7902 1.8678-3.0748 0.21091-0.27273 2.0737-2.5187 2.4137-2.4618 0.35483 0.05938 1.5925 2.8221 1.7289 3.155 0.13074 0.31902 1.1444 3.0552 0.92508 3.3212z" fill="#26c6da"/>
  <path transform="matrix(-.63338 .34028 .25699 .83865 -214.74 377.24)" d="m-151.75 93.336c-0.22883 0.2776-3.2402-0.03191-3.5967-0.08022-0.34164-0.04629-3.2181-0.53654-3.3388-0.85948-0.126-0.33698 1.6478-2.7902 1.8678-3.0748 0.21091-0.27273 2.0737-2.5187 2.4137-2.4618 0.35483 0.05938 1.5925 2.8221 1.7289 3.155 0.13074 0.31902 1.1444 3.0552 0.92508 3.3212z" fill="#26c6da"/>
  <rect x="-22.414" y="397.56" width="86.592" height="6.3462" fill="#ccc"/>
  <path transform="matrix(.63338 .34028 -.25699 .83865 97.809 377.24)" d="m-151.75 93.336c-0.22883 0.2776-3.2402-0.03191-3.5967-0.08022-0.34164-0.04629-3.2181-0.53654-3.3388-0.85948-0.126-0.33698 1.6478-2.7902 1.8678-3.0748 0.21091-0.27273 2.0737-2.5187 2.4137-2.4618 0.35483 0.05938 1.5925 2.8221 1.7289 3.155 0.13074 0.31902 1.1444 3.0552 0.92508 3.3212z" fill="#ccc"/>
  <path transform="matrix(-.63338 .34028 .25699 .83865 -56.246 377.24)" d="m-151.75 93.336c-0.22883 0.2776-3.2402-0.03191-3.5967-0.08022-0.34164-0.04629-3.2181-0.53654-3.3388-0.85948-0.126-0.33698 1.6478-2.7902 1.8678-3.0748 0.21091-0.27273 2.0737-2.5187 2.4137-2.4618 0.35483 0.05938 1.5925 2.8221 1.7289 3.155 0.13074 0.31902 1.1444 3.0552 0.92508 3.3212z" fill="#ccc"/>
  <rect x="-124.45" y="408.89" width="188.36" height="6.3462" fill="#ccc"/>
  <path transform="matrix(.81264 .34028 -.32973 .83865 29.805 388.57)" d="m-151.75 93.336c-0.22883 0.2776-3.2402-0.03191-3.5967-0.08022-0.34164-0.04629-3.2181-0.53654-3.3388-0.85948-0.126-0.33698 1.6478-2.7902 1.8678-3.0748 0.21091-0.27273 2.0737-2.5187 2.4137-2.4618 0.35483 0.05938 1.5925 2.8221 1.7289 3.155 0.13074 0.31902 1.1444 3.0552 0.92508 3.3212z" fill="#ccc"/>
  <path transform="matrix(-.81264 .34028 .32973 .83865 -90.784 388.57)" d="m-151.75 93.336c-0.22883 0.2776-3.2402-0.03191-3.5967-0.08022-0.34164-0.04629-3.2181-0.53654-3.3388-0.85948-0.126-0.33698 1.6478-2.7902 1.8678-3.0748 0.21091-0.27273 2.0737-2.5187 2.4137-2.4618 0.35483 0.05938 1.5925 2.8221 1.7289 3.155 0.13074 0.31902 1.1444 3.0552 0.92508 3.3212z" fill="#ccc"/>
  <rect x="-124.45" y="419.59" width="188.36" height="6.3462" fill="#ccc"/>
  <path transform="matrix(.81264 .34028 -.32973 .83865 29.805 399.27)" d="m-151.75 93.336c-0.22883 0.2776-3.2402-0.03191-3.5967-0.08022-0.34164-0.04629-3.2181-0.53654-3.3388-0.85948-0.126-0.33698 1.6478-2.7902 1.8678-3.0748 0.21091-0.27273 2.0737-2.5187 2.4137-2.4618 0.35483 0.05938 1.5925 2.8221 1.7289 3.155 0.13074 0.31902 1.1444 3.0552 0.92508 3.3212z" fill="#ccc"/>
  <path transform="matrix(-.81264 .34028 .32973 .83865 -90.784 399.27)" d="m-151.75 93.336c-0.22883 0.2776-3.2402-0.03191-3.5967-0.08022-0.34164-0.04629-3.2181-0.53654-3.3388-0.85948-0.126-0.33698 1.6478-2.7902 1.8678-3.0748 0.21091-0.27273 2.0737-2.5187 2.4137-2.4618 0.35483 0.05938 1.5925 2.8221 1.7289 3.155 0.13074 0.31902 1.1444 3.0552 0.92508 3.3212z" fill="#ccc"/>
  <rect x="-80.186" y="397.56" width="44.687" height="6.3462" fill="#ff7043"/>
  <path transform="matrix(.92441 .34028 -.37508 .83865 95.28 377.24)" d="m-151.75 93.336c-0.22883 0.2776-3.2402-0.03191-3.5967-0.08022-0.34164-0.04629-3.2181-0.53654-3.3388-0.85948-0.126-0.33698 1.6478-2.7902 1.8678-3.0748 0.21091-0.27273 2.0737-2.5187 2.4137-2.4618 0.35483 0.05938 1.5925 2.8221 1.7289 3.155 0.13074 0.31902 1.1444 3.0552 0.92508 3.3212z" fill="#ff7043"/>
  <path transform="matrix(-.92441 .34028 .37508 .83865 -210.88 377.24)" d="m-151.75 93.336c-0.22883 0.2776-3.2402-0.03191-3.5967-0.08022-0.34164-0.04629-3.2181-0.53654-3.3388-0.85948-0.126-0.33698 1.6478-2.7902 1.8678-3.0748 0.21091-0.27273 2.0737-2.5187 2.4137-2.4618 0.35483 0.05938 1.5925 2.8221 1.7289 3.155 0.13074 0.31902 1.1444 3.0552 0.92508 3.3212z" fill="#ff7043"/>
  <rect transform="scale(-1,1)" x="33.561" y="430.28" width="30.618" height="6.3462" fill="#26c6da"/>
  <path transform="matrix(-.63338 .34028 .25699 .83865 -153.78 409.97)" d="m-151.75 93.336c-0.22883 0.2776-3.2402-0.03191-3.5967-0.08022-0.34164-0.04629-3.2181-0.53654-3.3388-0.85948-0.126-0.33698 1.6478-2.7902 1.8678-3.0748 0.21091-0.27273 2.0737-2.5187 2.4137-2.4618 0.35483 0.05938 1.5925 2.8221 1.7289 3.155 0.13074 0.31902 1.1444 3.0552 0.92508 3.3212z" fill="#26c6da"/>
  <path transform="matrix(.63338 .34028 -.25699 .83865 55.984 409.97)" d="m-151.75 93.336c-0.22883 0.2776-3.2402-0.03191-3.5967-0.08022-0.34164-0.04629-3.2181-0.53654-3.3388-0.85948-0.126-0.33698 1.6478-2.7902 1.8678-3.0748 0.21091-0.27273 2.0737-2.5187 2.4137-2.4618 0.35483 0.05938 1.5925 2.8221 1.7289 3.155 0.13074 0.31902 1.1444 3.0552 0.92508 3.3212z" fill="#26c6da"/>
  <rect transform="scale(-1,1)" x="78.571" y="430.28" width="44.687" height="6.3462" fill="#ff7043"/>
  <path transform="matrix(-.92441 .34028 .37508 .83865 -254.04 409.97)" d="m-151.75 93.336c-0.22883 0.2776-3.2402-0.03191-3.5967-0.08022-0.34164-0.04629-3.2181-0.53654-3.3388-0.85948-0.126-0.33698 1.6478-2.7902 1.8678-3.0748 0.21091-0.27273 2.0737-2.5187 2.4137-2.4618 0.35483 0.05938 1.5925 2.8221 1.7289 3.155 0.13074 0.31902 1.1444 3.0552 0.92508 3.3212z" fill="#ff7043"/>
  <path transform="matrix(.92441 .34028 -.37508 .83865 52.121 409.97)" d="m-151.75 93.336c-0.22883 0.2776-3.2402-0.03191-3.5967-0.08022-0.34164-0.04629-3.2181-0.53654-3.3388-0.85948-0.126-0.33698 1.6478-2.7902 1.8678-3.0748 0.21091-0.27273 2.0737-2.5187 2.4137-2.4618 0.35483 0.05938 1.5925 2.8221 1.7289 3.155 0.13074 0.31902 1.1444 3.0552 0.92508 3.3212z" fill="#ff7043"/>
  <g transform="translate(-707.27)">
   <path d="m1066.5 462.1 112.42 2.5417 9.2426 87.974h-131.36z" fill="#f2f2f2"/>
   <path d="m1066.5 462.1-2.9368 27.39h117.96l-2.6107-24.848-112.41-2.5425z" fill="#ccc"/>
   <rect transform="scale(1,-1)" x="868.27" y="-483.19" width="508.48" height="333.86" ry="23.152" fill="#fff" fill-rule="evenodd"/>
   <path d="m868.2 142.27v294.36h508.63v-294.36zm11.989 15.212h482.44l-64.701 242.45-361.54-24.181z" fill="#333" fill-rule="evenodd"/>
   <rect x="868.21" y="120.72" width="508.59" height="140.16" ry="26.319" fill="#333"/>
   <rect x="888.77" y="143.08" width="467.48" height="269.36" fill="#ececec" fill-rule="evenodd"/>
   <rect x="1018.9" y="539.29" width="207.17" height="13.328" ry="3.8525" fill="#fff"/>
   <circle cx="1122.5" cy="460.5" r="13.071" fill="#333"/>
   <rect x="922.58" y="143.08" width="399.85" height="269.36" fill="#fff" fill-rule="evenodd"/>
   <rect x="929.04" y="150.91" width="387.1" height="64.962" fill="#66bb6a"/>
   <rect x="929.04" y="222.01" width="387.1" height="16.51" fill="#64b5f6"/>
   <rect x="932.38" y="224.12" width="39.957" height="12.27" fill="#1e88e5"/>
   <rect x="975.49" y="224.12" width="39.957" height="12.27" fill="#1e88e5"/>
   <rect x="1019.2" y="224.12" width="51.283" height="12.27" fill="#1e88e5"/>
   <rect x="1074.4" y="224.12" width="37.755" height="12.27" fill="#1e88e5"/>
   <rect x="1114.9" y="224.12" width="51.283" height="12.27" fill="#1e88e5"/>
   <rect x="929.04" y="244.04" width="144.01" height="126.63" fill="#64b5f6"/>
   <rect x="1222.3" y="244.04" width="93.873" height="162.49" fill="#f06292"/>
   <path d="m1260.4 249.45-10.697 10.697-13.213 67.33-14.197 23.314v55.742h13.734l64.644-31.863s12.586-48.452 12.586-50.969-52.857-74.252-52.857-74.252z" fill="#d81b60" fill-rule="evenodd"/>
   <rect x="929.04" y="376.18" width="31.889" height="30.461" fill="#64b5f6"/>
   <rect x="966.42" y="376.18" width="31.889" height="30.461" fill="#64b5f6"/>
   <rect x="1003.8" y="376.18" width="31.889" height="30.461" fill="#64b5f6"/>
   <rect x="1041.2" y="376.18" width="31.889" height="30.461" fill="#64b5f6"/>
   <rect x="1081" y="244.41" width="84.948" height="8.1802" fill="#999"/>
   <rect x="1081.7" y="256.37" width="72.363" height="2.517" fill="#999"/>
   <rect x="1082.6" y="276.19" width="44.676" height="6.2924" fill="#aed581"/>
   <rect x="1082.6" y="286.89" width="37.125" height="6.2924" fill="#aed581"/>
   <rect x="1082.6" y="296.95" width="37.125" height="6.2924" fill="#aed581"/>
   <rect x="1082.6" y="307.02" width="32.091" height="6.2924" fill="#aed581"/>
   <rect x="1082.6" y="317.09" width="32.091" height="6.2924" fill="#aed581"/>
   <rect x="1082.6" y="327.79" width="37.125" height="6.2924" fill="#aed581"/>
   <rect x="1082.6" y="338.8" width="43.733" height="6.2924" fill="#aed581"/>
   <rect x="1082.6" y="348.24" width="43.733" height="6.2924" fill="#aed581"/>
   <rect x="1132.7" y="276.19" width="2.1843" height="6.2924" fill="#aed581"/>
   <rect x="1132.7" y="286.2" width="2.1843" height="6.2924" fill="#aed581"/>
   <rect x="1132.7" y="296.43" width="2.1843" height="6.2924" fill="#aed581"/>
   <rect x="1132.7" y="306" width="2.1843" height="6.2924" fill="#aed581"/>
   <rect x="1132.7" y="316.46" width="2.1843" height="6.2924" fill="#aed581"/>
   <rect x="1132.7" y="327.36" width="2.1843" height="6.2924" fill="#aed581"/>
   <rect x="1132.7" y="338.7" width="2.1843" height="6.2924" fill="#aed581"/>
   <rect x="1132.7" y="348.05" width="2.1843" height="6.2924" fill="#aed581"/>
   <rect x="1144.7" y="276.19" width="59.36" height="6.2924" fill="#aed581"/>
   <rect x="1144.5" y="286.89" width="37.125" height="6.2924" fill="#aed581"/>
   <rect x="1144.7" y="296.95" width="66.492" height="6.2924" fill="#aed581"/>
   <rect x="1144.5" y="307.02" width="12.736" height="6.2924" fill="#aed581"/>
   <rect x="1144.9" y="317.09" width="12.514" height="6.2924" fill="#aed581"/>
   <rect x="1144.2" y="327.79" width="20.44" height="6.2924" fill="#aed581"/>
   <rect x="1144.5" y="338.8" width="43.733" height="6.2924" fill="#aed581"/>
   <rect x="1144.7" y="348.24" width="16.146" height="6.2924" fill="#aed581"/>
   <rect x="1100.2" y="376.55" width="111.69" height="6.2924" fill="#aed581"/>
   <rect x="1082.6" y="387.88" width="129.31" height="6.2924" fill="#aed581"/>
   <rect x="1082.6" y="397.95" width="106.34" height="6.2924" fill="#aed581"/>
   <path d="m1068.5 270.21-20.764 4.4043-50.969 32.092-23.912-8.1797-43.771 21.164v50.973h144.02v-100.1l-4.5996-0.35351z" fill="#42a5f5" fill-rule="evenodd"/>
   <path d="m1293.7 266.44-38.383 96.904 36.869 43.189h23.93v-124.22l-22.416-15.877z" fill="#e91e63" fill-rule="evenodd"/>
   <path d="m1231.4 289.72-9.1621 10.426v106.39h85.008l-75.846-116.81z" fill="#ec407a" fill-rule="evenodd"/>
   <path d="m959.43 384.55-4.479 0.95006-10.995 6.9226-5.1582-1.7645-9.4421 4.5654v10.996h31.066v-21.593l-0.99219-0.0763z" fill="#42a5f5" fill-rule="evenodd"/>
   <path d="m981.78 383.95-15.363 10.326v12.365h31.891v-14.691l-16.527-8z" fill="#42a5f5" fill-rule="evenodd"/>
   <path d="m1035.7 379.29-16.148 10.475h-4.7187s-5.8653 3.0281-11.022 5.6172v11.254h31.889v-27.346z" fill="#42a5f5" fill-rule="evenodd"/>
   <path d="m1316.1 164.58-29.967 9.9902-85.576 7.5508-73.623-9.4395-66.699 13.844-46.564-15.102-84.672 18.406v26.043h387.1v-51.293z" fill="#4caf50" fill-rule="evenodd"/>
  </g>
 </g>
</svg>
