<?xml version='1.0' encoding='utf-8'?>
<svg xmlns="http://www.w3.org/2000/svg" version="1.1" id="Layer_1" x="0px" y="0px" viewBox="0 0 2560 1440.427" enable-background="new 0 0 2560 1440.427"> <g> <radialGradient id="SVGID_1_" cx="1293.0627" cy="391.7738" r="1611.4613" gradientTransform="matrix(0.8533 0 0 0.8533 176.5867 157.4046)" gradientUnits="userSpaceOnUse"> <stop offset="0" style="stop-color:#FFFEF8"/> <stop offset="0.1384" style="stop-color:#FFF290"/> <stop offset="0.2623" style="stop-color:#FFF24B"/> <stop offset="0.694" style="stop-color:#CF5500"/> <stop offset="0.7724" style="stop-color:#BC4500"/> <stop offset="0.9311" style="stop-color:#8A1D01"/> <stop offset="1" style="stop-color:#720A01"/> </radialGradient> <rect x="0" fill="url(#SVGID_1_)" width="2560" height="1440.427"/> <g> <g> <path fill="#C58500" d="M2560,1191.868V727.503h-14.423v-5.874h-1.396v-1.512h-2.617v1.687h-1.105v2.617h-0.698v-2.85h-1.57 v-8.026h-1.628v13.609h-45.13v4.304h-1.861v21.983h-9.886l-5.234,115.267h-6.863v-42.338h-13.667v-2.85h-6.688v-6.746 c4.653-8.491-2.733-13.143-2.733-13.143l-5.874-29.456h-5.322l-4.275,4.275v-35.01h-12.62v212.679h-5.234v-60.076h-31.23v-20.064 h-3.431v-17.505h-1.279v7.793h-3.722v-8.142l-1.512-0.116v14.248l-3.14-4.42l-2.152,3.722l-0.698-122.827l-13.783-35.243v-7.56 l-5.06-3.664l-4.304,4.304v6.455l-2.792,4.42v-11.457h-2.21v-15.644h-0.989v32.859l-9.421,25.531v99.971h-2.675v75.662h-3.78 v-28.148h-13.55l-4.304-25.647v-15.063h-1.047v7.793h-4.536v-8.665h-0.727v15.15l-3.46-3.46l-7.502,9.77l-4.769,17.68h-10.236 v-37.918h1.919v-49.491l-19.25-49.724v-15.644h-1.628v15.528l-22.681,50.654v24.426h-25.124v2.617h14.772v2.966h-8.2v1.338h8.2 v2.501h-5.467v4.42h-12.969v43.385h-4.943v-29.078h-9.305v-4.653h-2.152v-6.223h-5.118v-3.606h5.118v-2.559h-23.902v15.993 h-3.722v8.142h-7.328v7.967h7.328v3.606h-9.654v57.415h-13.391v1.221h4.26v1.323h-11.166v20.82h-5.816v-20.82h-25.007V759.256 h-5.467v6.979h-2.094v-8.142h-7.328v5.932h-11.632v25.007l-5.699,5.699h-24.193v21.518h-5.583v60.018h-4.536l-1.861,6.397 l-10.934-19.192v-38.732h-11.864l-9.189,15.237v-55.482h-5.699v-2.443h-11.05v2.094h-6.63v87.933l-10.817-18.145h-11.515v73.859 l-10.468-4.885v-14.307c0,0-9.422,0-12.911,0c-3.489,0-3.722-4.653-3.722-4.653h-17.098l-9.305,4.42v-14.19h-2.443v-10.933 h-2.908v-4.187h-5.699v-70.05h1.977V805.2h-12.387c0,0,0-14.888,0-20.18c0-5.292-9.014-9.014-9.014-9.014v-12.562h-3.024v11.399 c-6.514,0-9.189,8.142-9.189,8.142v21.053h-6.048v3.257h-4.304v-30.358c-10.352-5.467-21.169-4.42-21.169-4.42v-10.701h-2.326 v11.166c-17.447,0-20.588,5.467-20.588,5.467v-48.503h-34.894v-22.914h-8.258v-21.169h-2.675v-3.606h-72.114v5.001h-2.559v21.867 h-8.491l-5.118,115.383h-8.026v-42.454h-14.074v-3.489h-5.816v-6.397c5.583-8.026-2.326-13.143-2.326-13.143l-6.746-29.253h-5.99 l-3.315,3.315v-33.731h-13.143v187.846l-3.838,23.146v-58.738h-32.19v-12.126l-3.14-7.851V726.34l-22.856-52.952v-13.26h-1.396 v11.864l-2.006-2.792v-6.281c0,0,0-3.489-4.449-3.489c-4.449,0-4.623,3.141-4.623,3.141v6.63l-3.489,3.489v-11.777h-2.53v-15.179 h-1.57v30.619l1.57,1.919c-6.368,9.247-9.683,25.56-9.683,25.56v100.233h-3.228v75.546h-3.49v-28.613h-12.78v-5.365l-0.916-0.916 v-9.16l-2.268-2.268v90.201h-16.575v19.715h-4.013v-66.764h-4.304V751.929c-0.872-9.421-8.375-22.797-8.375-22.797v-34.254 h-1.686v15.179h-2.501v11.806l-2.908-4.187v-7.211c0,0-1.163-2.326-4.362-2.326c-3.199,0-4.594,3.024-4.594,3.024v7.27 c-5.147,5.147-6.397,14.656-6.397,14.656c-8.782,13.609-6.921,28.962-6.921,28.962v138.646c0,0-0.64-3.606-2.326-3.606 c-1.686,0-2.384,3.024-2.384,3.024v-12.911h-1.57v7.328h-3.955v-8.026h-0.931v14.655l-3.722,4.304v18.61h-31.637v19.657h-4.071 V771.934h-12.329v34.429h-1.687l-3.082-5.176h-5.525l-6.252,29.98l-3.46,3.46c-4.042,4.042,0,9.131,0,9.131v7.56h-5.409v3.14 h-13.26v42.513h-7.386l-5.932-115.034h-9.48v-22.332h-2.326v-3.431h-15.179v-52.516l-13.958-34.312v-6.572 c0,0,1.105-3.664-4.653-3.664s-5.002,3.722-5.002,3.722v5.467l-2.966,4.827v-12.155h-1.396v-15.237h-1.163v31.928l-10.352,25.996 v51.934h-8.491v-3.548h-1.279v3.606h-7.037v2.85h-1.454v21.227h-10.119v23.03h-34.574v49.113h-3.141v-18.93l-18.843-48.939 v-14.481h-1.832v14.481l-22.158,50.945v27.479h-1.745v6.543l-6.891,8.113c0,0,0-8.026,0-19.715s-9.421-10.468-9.421-10.468 v-11.166h-1.483v11.166c-12.038,0-10.468,10.468-10.468,10.468v21.722h-9.596v51.381l-17.796-7.328v-18.145h-4.362v-2.704h-1.657 l-9.509-17.534v-9.029h-2.225l-6.586-6.586v-10.904h-1.221v10.774h-1.09l-6.673,6.673v9.683l-9.16,16.662v4.362h-7.24v57.837 h-16.138v-44.664l-55.743-16.924l-4.885,28.351v-65.135h-4.856v-14.626l-2.762-2.762v-8.026h-3.955v-9.945h-4.827v2.908h-2.85 v-2.094h-3.896v7.328h-2.268v7.502l-3.838,3.838h-9.945v1.977h-2.501v-3.431h-1.687v-2.326h-1.977v-7.444h-4.362v-9.305h-18.785 v10.003h-3.373v7.328h-3.024v17.505h-6.339v20.529h-30.3v12.097l-9.131-1.512v-85.607h-12.271v-6.979h-22.565v5.467h-4.652v-9.48 h-6.862v9.596h-1.57v22.914l-5.234,6.455v3.606h-1.861v-1.803h-6.455v-2.617h-2.268v2.443h-13.958v21.751h-4.653v59.785h-4.769 l-2.443,3.78l-11.341-15.412v-55.656h-1.396v3.664h-1.454v-5.001h-1.279v5.99l-16.458,26.054v-55.889H688.11v88.107 l-10.119-17.97h-12.213v73.685l-9.887-4.187v-14.946c0,0-10.817,0-13.085,0c-2.268,0-3.315-5.583-3.315-5.583h-19.25v3.722 h-5.001v1.628h-1.396v-15.76h-4.362v-8.316h-1.977v-5.176h-6.339v-69.323h2.617v-3.489h-6.979v-1.221h-4.856V829.51 c0-10.119-10.207-10.206-10.207-10.206v-11.137h-2.472v11.137c-11.137,0-10.206,10.206-10.206,10.206v21.809h-9.421v-29.253 c-3.722-3.722-13.725-4.652-13.725-4.652v-50.538l-4.827-13.783v-15.935h-2.21v11.98h-1.221v-3.664c-3.257-3.257-5.35,0-5.35,0 v3.315l-5.816,18.087v51.818c-9.654,0-9.887,5.06-9.887,5.06h-0.989v-49.957h-34.72v-21.751h-8.375v-21.867h-2.443v-2.675 h-18.145v-5.874h-1.396v-1.512h-2.617v1.687h-1.105v2.617h-0.698v-2.85h-1.57v-8.026h-1.628v13.609h-45.13v4.304h-1.861v21.983 h-9.887l-5.234,115.267h-6.862v-42.338h-13.667v-2.85h-6.688v-6.746c4.653-8.491-2.733-13.143-2.733-13.143l-5.874-29.456h-5.321 l-4.274,4.275v-35.01h-12.62v212.679h-5.234v-60.076h-31.23v-20.064h-3.431v-17.505h-1.279v7.793h-3.722v-8.142l-1.512-0.116 v14.248l-3.14-4.42l-2.152,3.722l-0.698-122.827l-13.783-35.243v-7.56l-5.06-3.664l-4.304,4.304v6.455l-2.792,4.42v-11.457h-2.21 v-15.644h-0.989v32.859l-9.421,25.531v99.971h-2.675v75.662h-3.78v-28.148h-13.551l-4.304-25.647v-15.063h-1.047v7.793h-4.536 v-8.665h-0.727v15.15l-3.46-3.46l-7.502,9.77l-4.769,17.68h-10.236v-37.918h1.919v-49.491l-19.25-49.724v-15.644h-1.628v15.528 l-22.681,50.654v24.426h-25.124v2.617h14.772v2.966h-8.2v1.338h8.2v2.501h-5.467v4.42h-12.969v43.385h-4.943v-29.078H90.55 v-4.653h-2.152v-6.223H83.28v-3.606h5.118v-2.559H64.496v15.993h-3.722v8.142h-7.328v7.967h7.328v3.606H51.12v57.415H37.729 v1.221h4.26v1.323H30.823v20.82h-5.816v-20.82H0v253.489h2093.642H2560z"/> </g> <path fill="#5D220C" d="M2560,1130.473h-30.578v25.458h-7.111v-25.458h-13.653v-1.618h5.209v-1.493h-16.373v-70.204h-11.804 v-4.409h8.96v-9.742h-8.96v-9.956h-4.551v-19.556h-29.227v3.129h6.258v4.409h-6.258v7.609h-2.631v5.689h-11.378v35.556h-6.044 v-53.049H2416v-5.404h-6.684v-3.058h10.027v-1.636h-10.027v-3.627h18.062v-3.2h-30.72v-29.867l-27.733-61.938v-18.987h-1.991 v19.129l-23.538,60.8v60.516h2.347v46.365h-12.515l-5.831-21.618l-9.173-11.947l-4.231,4.231v-18.524h-0.889v10.596h-5.547v-9.529 h-1.28v18.418l-5.262,31.36h-16.569v34.418h-4.622v-92.516h-3.271V898.58l-11.52-31.218v-40.178h-1.209v19.129h-2.702v14.009 l-3.413-5.404v-7.893l-5.262-5.262l-6.187,4.48v9.244l-16.853,43.093l-0.854,150.187l-2.631-4.551l-3.84,5.404v-17.422 l-1.849,0.142v9.955h-4.551v-9.529h-1.564v21.404h-4.196v24.533h-38.187v73.458h-6.4V892.109h-15.431v42.809l-5.227-5.227h-6.507 l-7.182,36.018c0,0-9.031,5.689-3.342,16.071v8.249h-8.178v3.484h-16.711v51.769h-8.391l-6.4-140.942h-12.089v-26.88h-2.275 v-5.262h-55.182v-16.64h-1.991v9.813h-1.92v3.484h-0.853v-3.2h-1.351v-2.062h-3.2v1.849h-1.707v7.182h-22.187v3.271h-2.987v26.738 h-10.24v26.596h-42.453v61.084h-1.209c0,0-0.284-6.187-12.089-6.187v-63.36l-7.111-22.116v-4.053c0,0-2.56-3.982-6.542,0v4.48 h-1.493v-14.649h-2.702v19.484l-5.902,16.853v61.796c0,0-12.231,1.138-16.782,5.689v35.769h-11.52v-26.667 c0,0,1.138-12.48-12.48-12.48v-13.618h-3.022v13.618c0,0-12.48,0.107-12.48,12.48v24.604h-5.938v1.493h-8.533v4.267h3.2v84.765 h-7.751v6.329h-2.418v10.169h-5.333v19.271h-1.707v-1.991h-6.115v-4.551h-23.538c0,0-1.28,6.827-4.053,6.827s-16,0-16,0v18.276 l-12.089,5.12v-90.098h-14.933l-12.373,21.973V996.073h-28.587v68.338l-20.125-31.858v-7.324h-1.564v6.116h-1.778v-4.48h-1.707 v68.053l-13.867,18.844l-2.987-4.622h-5.831v-73.102h-5.689v-26.596h-17.067v-2.987h-2.773v3.2h-7.893v2.204h-2.276v-4.409 l-6.4-7.893V971.54h-1.92v-11.733h-8.391v11.591h-5.689v-6.684h-27.591v8.533h-15.004v104.676l-11.164,1.849v-14.791h-37.049 v-25.102h-7.751v-21.404h-3.698v-8.96h-4.125v-12.231h-22.969v11.378h-5.333v9.102h-2.418v2.844h-2.062v4.196h-3.058v-2.418 h-12.16l-4.693-4.693v-9.173h-2.773v-8.96h-4.764v2.56h-3.484v-3.556h-5.902v12.16h-4.836v9.813l-3.378,3.378v17.884h-5.938 v79.644l-5.973-34.667l-68.16,20.693v54.613h-19.733v-70.72h-8.853v-5.333l-11.2-20.373v-11.84l-8.16-8.16h-1.333v-13.173h-1.493 v13.333l-8.053,8.053h-2.72v11.04l-11.627,21.44h-2.027v3.307h-5.333v22.187l-21.76,8.96v-62.827h-11.733v-26.56 c0,0,1.92-12.8-12.8-12.8v-13.653h-1.813v13.653c0,0-11.52-1.493-11.52,12.8c0,14.293,0,24.107,0,24.107l-8.427-9.92v-8h-2.133 v-33.6l-27.093-62.293v-17.707h-2.24v17.707l-23.04,59.84v23.147h-3.84v-60.053h-42.276v-28.16h-12.373v-25.956h-1.778v-3.484 h-8.604v-4.409h-1.564v4.338h-10.382v-63.502l-12.658-31.787v-39.04h-1.422v18.631h-1.707v14.862l-3.627-5.902v-6.684 c0,0,0.924-4.551-6.116-4.551c-7.04,0-5.689,4.48-5.689,4.48v8.036l-17.067,41.956v64.213h-18.56v4.196h-2.844v27.307h-11.591 l-7.253,140.658h-9.031v-51.982h-16.213v-3.84h-6.613v-9.244c0,0,4.942-6.222,0-11.164l-4.231-4.231l-7.644-36.658h-6.756 l-3.769,6.329h-2.062v-42.098h-15.076v210.062h-4.978v-24.036h-38.685v-22.755l-4.551-5.262v-17.92h-1.138v9.813h-4.836v-8.96 h-1.92v15.787c0,0-0.853-3.698-2.916-3.698c-2.062,0-2.844,4.409-2.844,4.409V914.864c0,0,2.276-18.773-8.462-35.413 c0,0-1.529-11.627-7.822-17.92v-8.889c0,0-1.707-3.698-5.618-3.698c-3.911,0-5.333,2.844-5.333,2.844v8.818l-3.556,5.12v-14.436 h-3.058v-18.56h-2.062v41.884c0,0-9.173,16.356-10.24,27.876v152.249h-5.262v81.636h-4.907v-24.107h-20.267v-110.293l-2.773,2.773 v11.2l-1.12,1.12v6.56h-15.627v34.987h-4.267v-92.373h-3.947v-122.56c0,0-4.053-19.947-11.84-31.253l1.92-2.347v-37.44h-1.92 v18.56h-3.093v14.4l-4.267-4.267v-8.107c0,0-0.213-3.84-5.653-3.84s-5.44,4.267-5.44,4.267v7.68l-2.453,3.413v-14.507h-1.707 v16.213l-27.947,64.747v128.747l-3.84,9.6v14.827h-39.36v71.822l-4.693-28.302V838.207h-16.071v41.244l-4.053-4.053h-7.324 l-8.249,35.769c0,0-9.671,6.258-2.844,16.071v7.822h-7.111v4.267h-17.209v51.911h-9.813l-6.258-141.084h-10.382v-26.738h-3.129 V817.3h-88.178v4.409h-3.271v25.884h-10.098v28.018h-42.667v59.307c0,0-3.84-6.684-25.173-6.684V914.58h-2.844v13.084 c0,0-13.227-1.28-25.884,5.404v37.12h-5.262v-3.982h-7.396v-25.742c0,0-3.271-9.956-11.236-9.956v-13.938h-3.698v15.36 c0,0-11.022,4.551-11.022,11.022s0,24.676,0,24.676h-15.147v4.658h2.418v85.653h-6.969v5.12h-3.556v13.369h-2.987v17.351 l-11.378-5.404h-20.907c0,0-0.284,5.689-4.551,5.689c-4.267,0-15.787,0-15.787,0v17.493l-12.8,5.973v-90.311h-14.08 l-13.227,22.187v-107.52h-8.107v-2.56h-13.511v2.987h-6.969v67.84l-11.236-18.631H96.996v47.36l-13.369,23.467l-2.276-7.822 h-5.547V981.14h-6.827v-26.311H39.396l-6.969-6.969v-30.578H18.204v-7.253h-8.96v9.956h-2.56v-8.533H0l0,528.976h2560V1130.473z"/> <path d="M0,1130.473h30.578v25.458h7.111v-25.458h13.653v-1.618h-5.209v-1.493h16.373v-70.204h11.804v-4.409h-8.96v-9.742h8.96 v-9.956h4.551v-19.556h29.227v3.129h-6.258v4.409h6.258v7.609h2.631v5.689h11.378v35.556h6.044v-53.049H144v-5.404h6.684v-3.058 h-10.027v-1.636h10.027v-3.627h-18.062v-3.2h30.72v-29.867l27.733-61.938v-18.987h1.991v19.129l23.538,60.8v60.516h-2.347v46.365 h12.516l5.831-21.618l9.173-11.947l4.231,4.231v-18.524h0.889v10.596h5.547v-9.529h1.28v18.418l5.262,31.36h16.569v34.418h4.622 v-92.516h3.271V898.58l11.52-31.218v-40.178h1.209v19.129h2.702v14.009l3.413-5.404v-7.893l5.262-5.262l6.187,4.48v9.244 l16.853,43.093l0.853,150.187l2.631-4.551l3.84,5.404v-17.422l1.849,0.142v9.955h4.551v-9.529h1.564v21.404h4.196v24.533h38.187 v73.458h6.4V892.109h15.431v42.809l5.227-5.227h6.507l7.182,36.018c0,0,9.031,5.689,3.342,16.071v8.249h8.178v3.484h16.711v51.769 h8.391l6.4-140.942h12.089v-26.88h2.276v-5.262h55.182v-16.64h1.991v9.813h1.92v3.484h0.853v-3.2h1.351v-2.062h3.2v1.849h1.707 v7.182h22.187v3.271h2.987v26.738h10.24v26.596h42.453v61.084h1.209c0,0,0.284-6.187,12.089-6.187v-63.36l7.111-22.116v-4.053 c0,0,2.56-3.982,6.542,0v4.48h1.493v-14.649h2.702v19.484l5.902,16.853v61.796c0,0,12.231,1.138,16.782,5.689v35.769h11.52 v-26.667c0,0-1.138-12.48,12.48-12.48v-13.618h3.022v13.618c0,0,12.48,0.107,12.48,12.48v24.604h5.938v1.493h8.533v4.267h-3.2 v84.765h7.751v6.329h2.418v10.169h5.333v19.271h1.707v-1.991h6.116v-4.551h23.538c0,0,1.28,6.827,4.053,6.827c2.773,0,16,0,16,0 v18.276l12.089,5.12v-90.098h14.933l12.373,21.973V996.073h28.587v68.338l20.124-31.858v-7.324h1.564v6.116h1.778v-4.48h1.707 v68.053l13.867,18.844l2.987-4.622h5.831v-73.102h5.689v-26.596h17.067v-2.987h2.773v3.2h7.893v2.204h2.276v-4.409l6.4-7.893 V971.54h1.92v-11.733h8.391v11.591h5.689v-6.684h27.591v8.533h15.004v104.676l11.164,1.849v-14.791h37.049v-25.102h7.751v-21.404 h3.698v-8.96h4.125v-12.231h22.969v11.378h5.333v9.102h2.418v2.844h2.062v4.196h3.058v-2.418h12.16l4.693-4.693v-9.173h2.773 v-8.96h4.764v2.56h3.484v-3.556h5.902v12.16h4.836v9.813l3.378,3.378v17.884h5.938v79.644l5.973-34.667l68.16,20.693v54.613 h19.733v-70.72h8.853v-5.333l11.2-20.373v-11.84l8.16-8.16h1.333v-13.173h1.493v13.333l8.053,8.053h2.72v11.04l11.627,21.44h2.027 v3.307h5.333v22.187l21.76,8.96v-62.827h11.733v-26.56c0,0-1.92-12.8,12.8-12.8v-13.653h1.813v13.653c0,0,11.52-1.493,11.52,12.8 c0,14.293,0,24.107,0,24.107l8.427-9.92v-8h2.133v-33.6l27.093-62.293v-17.707h2.24v17.707l23.04,59.84v23.147h3.84v-60.053 h42.276v-28.16h12.373v-25.956h1.778v-3.484h8.604v-4.409h1.564v4.338h10.382v-63.502l12.658-31.787v-39.04h1.422v18.631h1.707 v14.862l3.627-5.902v-6.684c0,0-0.924-4.551,6.116-4.551s5.689,4.48,5.689,4.48v8.036l17.067,41.956v64.213h18.56v4.196h2.844 v27.307h11.591l7.253,140.658h9.031v-51.982h16.213v-3.84h6.613v-9.244c0,0-4.942-6.222,0-11.164l4.231-4.231l7.644-36.658h6.756 l3.769,6.329h2.062v-42.098h15.076v210.062h4.978v-24.036h38.684v-22.755l4.551-5.262v-17.92h1.138v9.813h4.836v-8.96h1.92v15.787 c0,0,0.853-3.698,2.916-3.698c2.062,0,2.844,4.409,2.844,4.409V914.864c0,0-2.276-18.773,8.462-35.413 c0,0,1.529-11.627,7.822-17.92v-8.889c0,0,1.707-3.698,5.618-3.698s5.333,2.844,5.333,2.844v8.818l3.556,5.12v-14.436h3.058 v-18.56h2.062v41.884c0,0,9.173,16.356,10.24,27.876v152.249h5.262v81.636h4.907v-24.107h20.267v-110.293l2.773,2.773v11.2 l1.12,1.12v6.56h15.627v34.987h4.267v-92.373h3.947v-122.56c0,0,4.053-19.947,11.84-31.253l-1.92-2.347v-37.44h1.92v18.56h3.093 v14.4l4.267-4.267v-8.107c0,0,0.213-3.84,5.653-3.84c5.44,0,5.44,4.267,5.44,4.267v7.68l2.453,3.413v-14.507h1.707v16.213 l27.947,64.747v128.747l3.84,9.6v14.827h39.36v71.822l4.693-28.302V838.207h16.071v41.244l4.053-4.053h7.324l8.249,35.769 c0,0,9.671,6.258,2.844,16.071v7.822h7.111v4.267h17.209v51.911h9.813l6.258-141.084h10.382v-26.738h3.129V817.3h88.178v4.409 h3.271v25.884h10.098v28.018h42.667v59.307c0,0,3.84-6.684,25.173-6.684V914.58h2.844v13.084c0,0,13.227-1.28,25.884,5.404v37.12 h5.262v-3.982h7.396v-25.742c0,0,3.271-9.956,11.236-9.956v-13.938h3.698v15.36c0,0,11.022,4.551,11.022,11.022s0,24.676,0,24.676 h15.146v4.658h-2.418v85.653h6.969v5.12h3.555v13.369h2.987v17.351l11.378-5.404h20.907c0,0,0.284,5.689,4.551,5.689 s15.787,0,15.787,0v17.493l12.8,5.973v-90.311h14.08l13.227,22.187v-107.52h8.107v-2.56h13.511v2.987h6.969v67.84l11.236-18.631 h14.507v47.36l13.369,23.467l2.275-7.822h5.547V981.14h6.827v-26.311h29.582l6.969-6.969v-30.578h14.222v-7.253h8.96v9.956h2.56 v-8.533H2560v528.976H0V1130.473z"/> </g> </g> </svg>